<svg xmlns="http://www.w3.org/2000/svg" xmlns:xlink="http://www.w3.org/1999/xlink" width="514.513" height="705.386" viewBox="0 0 514.513 705.386">
  <defs>
    <filter id="Ellipse_169" x="235.892" y="607.847" width="146.249" height="97.539" filterUnits="userSpaceOnUse">
      <feOffset dy="10" input="SourceAlpha"/>
      <feGaussianBlur stdDeviation="5" result="blur"/>
      <feFlood flood-opacity="0.161"/>
      <feComposite operator="in" in2="blur"/>
      <feComposite in="SourceGraphic"/>
    </filter>
  </defs>
  <g id="Group_108" data-name="Group 108" transform="translate(-1214.183 -1420.925)">
    <g id="Group_104" data-name="Group 104">
      <path id="Path_578" data-name="Path 578" d="M1335.852,1860.792v18.158l1.757-1.015v-18.193Z" fill="gray"/>
      <path id="Path_579" data-name="Path 579" d="M1335.852,1878.949l-1.54-1.186v-16.047l1.54-.925Z" fill="#ccc"/>
      <path id="Path_580" data-name="Path 580" d="M1304.878,1847.182v18.158l1.757-1.015v-18.193Z" fill="gray"/>
      <path id="Path_581" data-name="Path 581" d="M1304.878,1865.34l-1.54-1.185v-16.047l1.54-.926Z" fill="#ccc"/>
      <path id="Path_582" data-name="Path 582" d="M1319.155,1837.591l31.426,18.145-23.569,13.609-31.426-18.145Z" fill="#b3b3b3"/>
      <path id="Path_583" data-name="Path 583" d="M1350.581,1855.736v2.845l-23.535,14.063-.035-3.3Z" fill="gray"/>
      <path id="Path_584" data-name="Path 584" d="M1327.011,1869.345l.035,3.3-31.46-18.275V1851.2Z" fill="#ccc"/>
    </g>
    <line id="Line_32" data-name="Line 32" y2="114.133" transform="translate(1317.639 1736.745)" fill="none" stroke="#4d4d4d" stroke-miterlimit="10" stroke-width="3"/>
    <line id="Line_33" data-name="Line 33" y2="120.693" transform="translate(1330.806 1734.895)" fill="#4d4d4d" stroke="gray" stroke-miterlimit="10" stroke-width="3"/>
    <g id="Group_105" data-name="Group 105">
      <path id="Path_585" data-name="Path 585" d="M1313.819,1746.447l-11.692-6.751,12.048-6.033Z" fill="#f2f2f2"/>
      <path id="Path_586" data-name="Path 586" d="M1347.031,1714.486v12.784l-33.212,19.177.356-12.784Z" fill="#ccc"/>
    </g>
    <g transform="matrix(1, 0, 0, 1, 1214.18, 1420.93)" filter="url(#Ellipse_169)">
      <ellipse id="Ellipse_169-2" data-name="Ellipse 169" cx="57.625" cy="33.27" rx="57.625" ry="33.27" transform="translate(251.39 613.35)" fill="#ff9d00" stroke="#ff9d00" stroke-miterlimit="10" stroke-width="1"/>
    </g>
    <rect id="Rectangle_130" data-name="Rectangle 130" width="115.241" height="18.441" transform="translate(1465.574 2049.465)" fill="#ff9d00"/>
    <ellipse id="Ellipse_170" data-name="Ellipse 170" cx="57.625" cy="33.27" rx="57.625" ry="33.27" transform="translate(1465.574 2016.612)" fill="#ffc47d"/>
    <g id="Group_106" data-name="Group 106">
      <path id="Path_587" data-name="Path 587" d="M1695.285,1468.493l33.182-20.088v67.512l-33.182,19.62Z" fill="#0c3577"/>
      <path id="Path_588" data-name="Path 588" d="M1695.285,1535.355l-48.407-27.3v-67.043l48.407,27.3Z" fill="#789fff"/>
      <path id="Path_589" data-name="Path 589" d="M1728.7,1448.4l-48.635-27.475-33.182,20.089,48.635,27.475Z" fill="#2355b7"/>
    </g>
    <path id="Path_590" data-name="Path 590" d="M1688.124,1473.5" fill="none" stroke="#000" stroke-miterlimit="10" stroke-width="1"/>
    <path id="Path_591" data-name="Path 591" d="M1480.1,1689.047l-33.208-19.174-.23-13.927,33.438-18.036Z" fill="#f2f2f2"/>
    <path id="Path_592" data-name="Path 592" d="M1452.2,1659.676l22.141,12.784.225-25.439-22.367-12.915Z" fill="#ffc47d"/>
    <path id="Path_593" data-name="Path 593" d="M1574.54,1516.712l5.462-3.321-48.16-48.462.209,9.234Z" fill="#0c3577"/>
    <path id="Path_594" data-name="Path 594" d="M1446.744,1615.509v-38.353l5.535-3.2v38.372Z" fill="#0c3577"/>
    <path id="Path_595" data-name="Path 595" d="M1446.9,1577.053l-5.535-3.2-.339,42.235,5.874-.685Z" fill="#789fff"/>
    <path id="Path_596" data-name="Path 596" d="M1490.95,1593.053v460.471l33.212,19.177V1612.23Z" fill="#789fff"/>
    <path id="Path_597" data-name="Path 597" d="M1690.492,1516.337l-443.1,255.7-33.212-19.177,443.1-255.7Z" fill="#2355b7"/>
    <path id="Path_598" data-name="Path 598" d="M1685.348,1513.481l-4.293-2.461v-27.753l4.293-2.758Z" fill="#789fff"/>
    <path id="Path_599" data-name="Path 599" d="M1649.038,1532.813l-4.293-2.461V1502.6l4.293-2.758Z" fill="#789fff"/>
    <path id="Path_600" data-name="Path 600" d="M1529.723,1461.333l-4.265-2.259.04,107.6,4.185-2.41Z" fill="#789fff"/>
    <path id="Path_601" data-name="Path 601" d="M1512.966,1610.476l-4.293-2.461v-27.753l4.293-2.758Z" fill="#789fff"/>
    <path id="Path_602" data-name="Path 602" d="M1421.8,1663.193l-4.293-2.461v-27.753l4.293-2.758Z" fill="#789fff"/>
    <path id="Path_603" data-name="Path 603" d="M1377.476,1688.917l-4.293-2.461V1658.7l4.293-2.758Z" fill="#789fff"/>
    <path id="Path_604" data-name="Path 604" d="M1333.193,1714.486l-4.293-2.461v-27.753l4.293-2.758Z" fill="#789fff"/>
    <path id="Path_605" data-name="Path 605" d="M1280.607,1744.794l-4.293-2.461V1714.58l4.293-2.758Z" fill="#789fff"/>
    <path id="Path_606" data-name="Path 606" d="M1524.162,1612.23V2072.7l33.212-19.177V1593.053Z" fill="#0c3577"/>
    <path id="Path_607" data-name="Path 607" d="M1499.128,2058.318V2007.18l16.606,9.588-.033,51.138Z" fill="#2355b7"/>
    <path id="Path_608" data-name="Path 608" d="M1648.708,1540.575v-38.353l5.535-3.2V1537.4Z" fill="#0c3577"/>
    <path id="Path_609" data-name="Path 609" d="M1685.348,1519.305v-38.8l5.144-2.545v38.372Z" fill="#0c3577"/>
    <path id="Path_610" data-name="Path 610" d="M1512.966,1618.986v-38.353l5.535-3.2v38.372Z" fill="#0c3577"/>
    <path id="Path_611" data-name="Path 611" d="M1421.758,1671.339v-38.353l5.535-3.2v38.372Z" fill="#0c3577"/>
    <path id="Path_612" data-name="Path 612" d="M1377.476,1696.907v-38.353l5.535-3.2v38.372Z" fill="#0c3577"/>
    <path id="Path_613" data-name="Path 613" d="M1333.193,1722.476v-38.353l5.535-3.2V1719.3Z" fill="#0c3577"/>
    <path id="Path_614" data-name="Path 614" d="M1302.127,1704.65l-4.293-2.461v-30.38l4.293-2.758Z" fill="#789fff"/>
    <path id="Path_615" data-name="Path 615" d="M1302.127,1711.979v-42.928l5.535-3.2V1708.8Z" fill="#0c3577"/>
    <path id="Path_616" data-name="Path 616" d="M1354.713,1672.689l-4.293-2.461v-30.38l4.293-2.758Z" fill="#789fff"/>
    <path id="Path_617" data-name="Path 617" d="M1354.713,1680.018V1637.09l5.535-3.2v42.947Z" fill="#0c3577"/>
    <path id="Path_618" data-name="Path 618" d="M1401.142,1645.954l-4.293-2.461v-30.38l4.293-2.758Z" fill="#789fff"/>
    <path id="Path_619" data-name="Path 619" d="M1401.142,1653.284v-42.928l5.535-3.2v42.947Z" fill="#0c3577"/>
    <path id="Path_620" data-name="Path 620" d="M1495.864,1592.757l-4.293-2.461v-30.38l4.293-2.758Z" fill="#789fff"/>
    <path id="Path_621" data-name="Path 621" d="M1495.864,1600.087v-42.928l5.535-3.2v42.947Z" fill="#0c3577"/>
    <path id="Path_622" data-name="Path 622" d="M1529.723,1562.7V1461.333l5.535-3.2v101.386Z" fill="#0c3577"/>
    <path id="Path_623" data-name="Path 623" d="M1587.82,1535.038l-4.293-2.461V1502.2l4.293-2.758Z" fill="#789fff"/>
    <path id="Path_624" data-name="Path 624" d="M1587.82,1542.367v-42.928l5.535-3.2v42.947Z" fill="#0c3577"/>
    <path id="Path_625" data-name="Path 625" d="M1623.8,1512.728l-4.293-2.461v-30.38l4.293-2.758Z" fill="#789fff"/>
    <path id="Path_626" data-name="Path 626" d="M1623.8,1520.057v-42.928l5.535-3.2v42.947Z" fill="#0c3577"/>
    <path id="Path_627" data-name="Path 627" d="M1651.806,1496.9l-4.293-2.461v-30.38l4.293-2.758Z" fill="#789fff"/>
    <path id="Path_628" data-name="Path 628" d="M1651.806,1504.232v-42.4l5.535-3.2v42.421Z" fill="#0c3577"/>
    <path id="Path_629" data-name="Path 629" d="M1280.607,1752.562v-38.353l5.535-3.2v38.372Z" fill="#0c3577"/>
    <path id="Path_630" data-name="Path 630" d="M1251.1,1737.373l-4.293-2.461v-33.65l4.293-2.758Z" fill="#789fff"/>
    <path id="Path_631" data-name="Path 631" d="M1251.1,1737.373v-38.868l5.535-3.2V1734.2Z" fill="#0c3577"/>
    <rect id="Rectangle_131" data-name="Rectangle 131" width="7.402" height="38.351" transform="matrix(0.5, -0.866, 0.866, 0.5, 1214.182, 1752.858)" fill="#2355b7"/>
    <path id="Path_632" data-name="Path 632" d="M1661.983,1461.285l.257,8.807L1258.331,1703.4l-24.615,43-14.133,8.16,33.2-57.52Z" fill="#0c3577"/>
    <path id="Path_633" data-name="Path 633" d="M1560.142,1591.436v-115.06l5.535-3.2v115.079Z" fill="#0c3577"/>
    <path id="Path_634" data-name="Path 634" d="M1555.958,1473.933l4.185,2.443,5.535-3.2-4.4-2.376Z" fill="#2355b7"/>
    <path id="Path_635" data-name="Path 635" d="M1523.2,1455.854v5.886l36.943,20.676v-6.04Z" fill="#789fff"/>
    <path id="Path_636" data-name="Path 636" d="M1560.142,1476.611l-4.185-2.443v112.046l4.185-2.41Z" fill="#789fff"/>
    <path id="Path_637" data-name="Path 637" d="M1560.142,1476.376l5.535-3.2-36.566-20.493-5.913,3.168Z" fill="#2355b7"/>
    <path id="Path_638" data-name="Path 638" d="M1466.041,1645.77v-38.353l5.535-3.2v38.372Z" fill="#0c3577"/>
    <path id="Path_639" data-name="Path 639" d="M1690.492,1508.511l-435.713,250.895L1247.4,1772.2l443.1-255.7Z" fill="#0c3577"/>
    <path id="Path_640" data-name="Path 640" d="M1471.577,1604.22l-5.535-3.638-5.382,3.536,5.382,3.3Z" fill="#b6deff"/>
    <path id="Path_641" data-name="Path 641" d="M1653.488,1456.363l-407.243,237.982-32.062,58.194,4.96,2.883,33.2-57.521,409.644-236.617Z" fill="#2355b7"/>
    <rect id="Rectangle_132" data-name="Rectangle 132" width="7.402" height="38.351" transform="matrix(0.5, -0.866, 0.866, 0.5, 1243.563, 1701.711)" fill="#2355b7"/>
    <path id="Path_642" data-name="Path 642" d="M1682.778,1482.416l-33.212-19.177,7.445-4.826,33.212,19.177Z" fill="#2355b7"/>
    <path id="Path_643" data-name="Path 643" d="M1690.492,1477.75v9.8l-404.349,233.325-24.615,43-14.133,8.16,33.2-57.52Z" fill="#0c3577"/>
    <path id="Path_644" data-name="Path 644" d="M1682,1472.828l-407.5,238.13-32.062,58.194,4.96,2.883,33.2-57.52,409.9-236.765Z" fill="#2355b7"/>
    <path id="Path_645" data-name="Path 645" d="M1460.659,1604.118l5.382,3.3,94.1-131.04-5.049-2.786Z" fill="#789fff"/>
    <path id="Path_646" data-name="Path 646" d="M1441.362,1573.857l5.511,3.2,81.375-118.413-5.049-2.786Z" fill="#789fff"/>
    <path id="Path_647" data-name="Path 647" d="M1466.194,1607.314l-5.535-3.2-.306,38.177,5.842,3.373Z" fill="#789fff"/>
    <path id="Path_648" data-name="Path 648" d="M1466.041,1607.416l94.1-131.04v4.794l-88.566,123.05Z" fill="#0c3577"/>
    <path id="Path_649" data-name="Path 649" d="M1446.9,1577.053l81.35-118.413v4.794l-75.815,110.422Z" fill="#0c3577"/>
    <path id="Path_650" data-name="Path 650" d="M1607.193,1556.489l-4.293-2.461v-32.61l4.293,4.5Z" fill="#789fff"/>
    <path id="Path_651" data-name="Path 651" d="M1607.193,1564.269v-38.353l5.535-3.2v38.372Z" fill="#0c3577"/>
    <path id="Path_652" data-name="Path 652" d="M1607.193,1525.916l5.535-3.2-47.05-49.54v9.236Z" fill="#0c3577"/>
    <path id="Path_653" data-name="Path 653" d="M1480.1,1637.91v51.138l44.057-28.9V1612.23Z" fill="#ccc"/>
    <path id="Path_654" data-name="Path 654" d="M1480.1,1689.047l44.057,3.066v-31.961Z" fill="#ccc"/>
    <path id="Path_655" data-name="Path 655" d="M1486.375,1642.868v27.6l31.518-18.6v-27.6Z" fill="#ff9d00"/>
    <g id="Group_107" data-name="Group 107">
      <ellipse id="Ellipse_171" data-name="Ellipse 171" cx="5.528" cy="3.192" rx="5.528" ry="3.192" transform="translate(1329.029 1725.998) rotate(-60)" fill="#4d4d4d"/>
      <ellipse id="Ellipse_172" data-name="Ellipse 172" cx="5.528" cy="3.192" rx="5.528" ry="3.192" transform="translate(1322.008 1729.855) rotate(-60)" fill="#4d4d4d"/>
    </g>
  </g>
</svg>
