<svg xmlns="http://www.w3.org/2000/svg" width="1660" height="843" viewBox="0 0 1660 843">
  <g id="Group_269" data-name="Group 269" transform="translate(-125 -3581)">
    <circle id="Ellipse_219" data-name="Ellipse 219" cx="17.5" cy="17.5" r="17.5" transform="translate(495 4035)" fill="#ffac1a" opacity="0.361"/>
    <circle id="Ellipse_220" data-name="Ellipse 220" cx="17.5" cy="17.5" r="17.5" transform="translate(937 4035)" fill="#ffac1a" opacity="0.361"/>
    <circle id="Ellipse_221" data-name="Ellipse 221" cx="17.5" cy="17.5" r="17.5" transform="translate(1357 4035)" fill="#ffac1a" opacity="0.361"/>
    <path id="Path_676" data-name="Path 676" d="M14063.13,9426v160.721h110.509v386.295h-193.5v225.271h253v60.623h124.048l.244-364.866" transform="translate(-13844 -5845)" fill="none" stroke="#3783dc" stroke-width="1"/>
    <path id="Path_677" data-name="Path 677" d="M14357.182,9685.8V9529.688h123.7v115.119h87.552v426.547h122.074V9962.433h107.549v-67.05" transform="translate(-13844 -5845)" fill="none" stroke="#3783dc" stroke-width="1"/>
    <path id="Path_678" data-name="Path 678" d="M14798.056,9681.153v-36.8H15055.2V9520.883h414.128v415.786h148.829v249.5h-219.186v27.733h-181.453V9901.57" transform="translate(-13844 -5845)" fill="none" stroke="#3783dc" stroke-width="1"/>
    <circle id="Ellipse_188" data-name="Ellipse 188" cx="10.5" cy="10.5" r="10.5" transform="translate(208 3729)" fill="#ffac1a"/>
    <circle id="Ellipse_189" data-name="Ellipse 189" cx="10.5" cy="10.5" r="10.5" transform="translate(319 3729)" fill="#ffac1a"/>
    <circle id="Ellipse_190" data-name="Ellipse 190" cx="10.5" cy="10.5" r="10.5" transform="translate(319 4117)" fill="#ffac1a"/>
    <circle id="Ellipse_191" data-name="Ellipse 191" cx="10.5" cy="10.5" r="10.5" transform="translate(125 4117)" fill="#ffac1a"/>
    <circle id="Ellipse_192" data-name="Ellipse 192" cx="10.5" cy="10.5" r="10.5" transform="translate(125 4339)" fill="#ffac1a"/>
    <circle id="Ellipse_193" data-name="Ellipse 193" cx="10.5" cy="10.5" r="10.5" transform="translate(378 4339)" fill="#ffac1a"/>
    <circle id="Ellipse_194" data-name="Ellipse 194" cx="10.5" cy="10.5" r="10.5" transform="translate(378 4403)" fill="#ffac1a"/>
    <circle id="Ellipse_195" data-name="Ellipse 195" cx="10.5" cy="10.5" r="10.5" transform="translate(502 4403)" fill="#ffac1a"/>
    <circle id="Ellipse_196" data-name="Ellipse 196" cx="10.5" cy="10.5" r="10.5" transform="translate(502 4042)" fill="#ffac1a"/>
    <circle id="Ellipse_197" data-name="Ellipse 197" cx="10.5" cy="10.5" r="10.5" transform="translate(502 3830)" fill="#ffac1a"/>
    <circle id="Ellipse_198" data-name="Ellipse 198" cx="10.5" cy="10.5" r="10.5" transform="translate(502 3674)" fill="#ffac1a"/>
    <circle id="Ellipse_199" data-name="Ellipse 199" cx="10.5" cy="10.5" r="10.5" transform="translate(626 3674)" fill="#ffac1a"/>
    <circle id="Ellipse_200" data-name="Ellipse 200" cx="10.5" cy="10.5" r="10.5" transform="translate(626 3788)" fill="#ffac1a"/>
    <circle id="Ellipse_201" data-name="Ellipse 201" cx="10.5" cy="10.5" r="10.5" transform="translate(713 3788)" fill="#ffac1a"/>
    <circle id="Ellipse_202" data-name="Ellipse 202" cx="10.5" cy="10.5" r="10.5" transform="translate(713 4216)" fill="#ffac1a"/>
    <circle id="Ellipse_203" data-name="Ellipse 203" cx="10.5" cy="10.5" r="10.5" transform="translate(835 4216)" fill="#ffac1a"/>
    <circle id="Ellipse_204" data-name="Ellipse 204" cx="10.5" cy="10.5" r="10.5" transform="translate(835 4107)" fill="#ffac1a"/>
    <circle id="Ellipse_205" data-name="Ellipse 205" cx="10.5" cy="10.5" r="10.5" transform="translate(944 4107)" fill="#ffac1a"/>
    <circle id="Ellipse_206" data-name="Ellipse 206" cx="10.5" cy="10.5" r="10.5" transform="translate(944 4042)" fill="#ffac1a"/>
    <circle id="Ellipse_207" data-name="Ellipse 207" cx="10.5" cy="10.5" r="10.5" transform="translate(944 3824)" fill="#ffac1a"/>
    <circle id="Ellipse_208" data-name="Ellipse 208" cx="10.5" cy="10.5" r="10.5" transform="translate(944 3788)" fill="#ffac1a"/>
    <circle id="Ellipse_209" data-name="Ellipse 209" cx="10.5" cy="10.5" r="10.5" transform="translate(1200 3788)" fill="#ffac1a"/>
    <circle id="Ellipse_210" data-name="Ellipse 210" cx="10.5" cy="10.5" r="10.5" transform="translate(1200 3665)" fill="#ffac1a"/>
    <circle id="Ellipse_211" data-name="Ellipse 211" cx="10.5" cy="10.5" r="10.5" transform="translate(1614 3665)" fill="#ffac1a"/>
    <circle id="Ellipse_212" data-name="Ellipse 212" cx="10.5" cy="10.5" r="10.5" transform="translate(1614 4082)" fill="#ffac1a"/>
    <circle id="Ellipse_213" data-name="Ellipse 213" cx="10.5" cy="10.5" r="10.5" transform="translate(1764 4082)" fill="#ffac1a"/>
    <circle id="Ellipse_214" data-name="Ellipse 214" cx="10.5" cy="10.5" r="10.5" transform="translate(1764 4327)" fill="#ffac1a"/>
    <circle id="Ellipse_215" data-name="Ellipse 215" cx="10.5" cy="10.5" r="10.5" transform="translate(1543 4327)" fill="#ffac1a"/>
    <circle id="Ellipse_216" data-name="Ellipse 216" cx="10.5" cy="10.5" r="10.5" transform="translate(1543 4358)" fill="#ffac1a"/>
    <circle id="Ellipse_217" data-name="Ellipse 217" cx="10.5" cy="10.5" r="10.5" transform="translate(1364 4358)" fill="#ffac1a"/>
    <circle id="Ellipse_218" data-name="Ellipse 218" cx="10.5" cy="10.5" r="10.5" transform="translate(1364 4042)" fill="#ffac1a"/>
  </g>
</svg>
