<svg id="Group_238" data-name="Group 238" xmlns="http://www.w3.org/2000/svg" width="211.129" height="177.677" viewBox="0 0 211.129 177.677">
  <g id="Group_235" data-name="Group 235" transform="translate(0 14.48)">
    <path id="Path_892" data-name="Path 892" d="M1144.792,684.111v2.909l-121.521,69.824V753.3Z" transform="translate(-933.663 -634.522)" fill="#0c3577"/>
    <path id="Path_893" data-name="Path 893" d="M1033.1,751.216,943.49,701.048v41.905l89.608,51.74v-2.828l-85.042-48.912-.224-36.534,85.265,48.34Z" transform="translate(-943.49 -632.436)" fill="#789fff"/>
    <path id="Path_894" data-name="Path 894" d="M1023.271,793.422l121.521-70.466V719l-121.521,70.651Z" transform="translate(-933.663 -630.225)" fill="#0c3577"/>
    <path id="Path_895" data-name="Path 895" d="M943.49,708.572l127.953-68.612,83.176,49.589L1033.1,758.74Z" transform="translate(-943.49 -639.96)" fill="#2355b7"/>
    <path id="Path_896" data-name="Path 896" d="M1140.734,688.777l1.276,35.566-118.739,69.034V756.27Z" transform="translate(-933.663 -633.947)" fill="#999"/>
    <path id="Path_897" data-name="Path 897" d="M1032.622,754.17l-85.266-48.34.224,36.534,85.042,48.912Z" transform="translate(-943.013 -631.847)" fill="#f2f2f2"/>
  </g>
  <g id="Group_236" data-name="Group 236" transform="translate(35.748 10.869)">
    <path id="Path_898" data-name="Path 898" d="M975.318,679.232v1.651l56,31.881v23.521l-56-32.13v1.952l58.706,33.331.75-27.026Z" transform="translate(-975.318 -631.512)" fill="#ffc47d"/>
    <path id="Path_899" data-name="Path 899" d="M1027.585,741.554l80.926-47.041V668.286l-80.176,45.475Z" transform="translate(-968.88 -632.86)" fill="#d17c00"/>
    <path id="Path_900" data-name="Path 900" d="M976.744,681.514v23.129l54.4,31.361V712.484Z" transform="translate(-975.142 -631.231)" fill="#f2f2f2"/>
    <path id="Path_901" data-name="Path 901" d="M1114.95,672.171l-60.757-35.426-78.875,47.72,59.456,33.181Z" transform="translate(-975.318 -636.745)" fill="#ff9d00"/>
  </g>
  <g id="Group_237" data-name="Group 237" transform="translate(47.289)">
    <path id="Path_902" data-name="Path 902" d="M1092.85,650.592v1.55l-64.748,37.2v-1.888Z" transform="translate(-980.357 -624.17)" fill="#0c3577"/>
    <path id="Path_903" data-name="Path 903" d="M1033.338,686.347l-47.745-26.73v22.328l47.745,27.568v-1.507l-45.312-26.061-.119-19.466,45.431,25.756Z" transform="translate(-985.593 -623.059)" fill="#789fff"/>
    <path id="Path_904" data-name="Path 904" d="M1028.1,708.835l64.748-37.546v-2.106L1028.1,706.827Z" transform="translate(-980.357 -621.88)" fill="#0c3577"/>
    <path id="Path_905" data-name="Path 905" d="M985.593,663.626l68.176-36.558,44.318,26.422-64.748,36.866Z" transform="translate(-985.593 -627.068)" fill="#2355b7"/>
    <path id="Path_906" data-name="Path 906" d="M1090.688,653.078l.68,18.95L1028.1,708.811V689.04Z" transform="translate(-980.357 -623.864)" fill="#999"/>
    <path id="Path_907" data-name="Path 907" d="M1033.084,687.921l-45.431-25.756.119,19.466,45.312,26.061Z" transform="translate(-985.339 -622.745)" fill="#f2f2f2"/>
  </g>
</svg>
