<svg xmlns="http://www.w3.org/2000/svg" xmlns:xlink="http://www.w3.org/1999/xlink" width="215.765" height="231.545" viewBox="0 0 215.765 231.545">
  <defs>
    <clipPath id="clip-path">
      <path id="Path_570" data-name="Path 570" d="M3401.106,680.912l19.916-11.574c10.023-5.825,23.9-5,39.224,3.841l-19.916,11.573C3425.01,675.907,3411.129,675.087,3401.106,680.912Z" transform="translate(-3401.106 -665.617)" fill="none"/>
    </clipPath>
    <clipPath id="clip-path-2">
      <path id="Path_574" data-name="Path 574" d="M3529.294,809.526,3509.378,821.1c9.9-5.751,16.032-17.978,16.081-35.358.1-34.981-24.5-77.6-54.947-95.172L3490.428,679c30.443,17.576,55.046,60.191,54.947,95.172C3545.325,791.549,3539.189,803.776,3529.294,809.526Z" transform="translate(-3470.513 -678.997)" fill="none"/>
    </clipPath>
  </defs>
  <g id="Group_174" data-name="Group 174" transform="translate(-1418.235 -2306.131)">
    <path id="Path_560" data-name="Path 560" d="M3301.558,797.922l73.274-41.683a10.553,10.553,0,0,1,10.509.042l121.383,70.325a10.554,10.554,0,0,1-.014,18.272L3432.9,887.492a10.554,10.554,0,0,1-10.638-.049l-120.848-71.258A10.553,10.553,0,0,1,3301.558,797.922Z" transform="translate(-1877.987 1648.77)" fill="#ffc47d"/>
    <g id="Group_102" data-name="Group 102" transform="translate(1438.594 2306.131)">
      <g id="Group_99" data-name="Group 99" transform="translate(0 39.741)">
        <g id="Group_98" data-name="Group 98" transform="translate(0 0)">
          <g id="Group_97" data-name="Group 97">
            <g id="Group_92" data-name="Group 92" transform="translate(38.916 7.323)">
              <g id="Group_91" data-name="Group 91" clip-path="url(#clip-path)">
                <g id="Group_90" data-name="Group 90">
                  <path id="Path_569" data-name="Path 569" d="M3401.106,680.912l19.916-11.574c10.023-5.825,23.9-5,39.224,3.841l-19.916,11.573c-15.32-8.846-29.2-9.666-39.224-3.841" transform="translate(-3401.106 -665.617)" fill="#122c5f"/>
                </g>
              </g>
            </g>
            <g id="Group_95" data-name="Group 95" transform="translate(78.14 14.884)">
              <g id="Group_94" data-name="Group 94" clip-path="url(#clip-path-2)">
                <g id="Group_93" data-name="Group 93">
                  <path id="Path_571" data-name="Path 571" d="M3470.513,690.571,3490.428,679c11.078,6.4,21.383,16.108,30.006,27.561l-19.916,11.573c-8.622-11.453-18.927-21.165-30.006-27.561" transform="translate(-3470.513 -678.997)" fill="#122c5f"/>
                  <path id="Path_572" data-name="Path 572" d="M3523.607,739.339l19.916-11.573c10.9,14.475,19.109,31.733,22.8,48.593L3546.4,787.931c-3.688-16.86-11.9-34.117-22.8-48.593" transform="translate(-3493.602 -700.204)" fill="#132e63"/>
                  <path id="Path_573" data-name="Path 573" d="M3553.222,825.323l19.915-11.573a88.19,88.19,0,0,1,2.144,19.018c-.05,17.38-6.186,29.607-16.081,35.357L3539.285,879.7c9.9-5.751,16.032-17.978,16.081-35.358a88.208,88.208,0,0,0-2.144-19.018" transform="translate(-3500.419 -737.595)" fill="#122c5f"/>
                </g>
              </g>
            </g>
            <g id="Group_96" data-name="Group 96">
              <ellipse id="Ellipse_163" data-name="Ellipse 163" cx="45.01" cy="77.708" rx="45.01" ry="77.708" transform="translate(0 45.231) rotate(-30.162)" fill="#2355b7"/>
            </g>
          </g>
        </g>
      </g>
      <g id="Group_100" data-name="Group 100" transform="translate(10.434 47.581)">
        <ellipse id="Ellipse_164" data-name="Ellipse 164" cx="40.364" cy="69.912" rx="40.364" ry="69.912" transform="translate(0 40.364) rotate(-30)" fill="#e5e5e5"/>
        <ellipse id="Ellipse_165" data-name="Ellipse 165" cx="2.283" cy="3.954" rx="2.283" ry="3.954" transform="translate(65.958 78.445) rotate(-30)" fill="#1c1c1b"/>
        <ellipse id="Ellipse_166" data-name="Ellipse 166" cx="1.008" cy="1.745" rx="1.008" ry="1.745" transform="translate(112.265 105.18) rotate(-30)" fill="#1c1c1b"/>
        <ellipse id="Ellipse_167" data-name="Ellipse 167" cx="1.008" cy="1.745" rx="1.008" ry="1.745" transform="translate(23.815 54.113) rotate(-30)" fill="#1c1c1b"/>
        <ellipse id="Ellipse_168" data-name="Ellipse 168" cx="1.008" cy="1.745" rx="1.008" ry="1.745" transform="translate(68.167 131.545) rotate(-30)" fill="#1c1c1b"/>
        <line id="Line_31" data-name="Line 31" x1="26.348" y2="15.212" transform="translate(43.564 80.727)" fill="none" stroke="#1c1c1b" stroke-miterlimit="10" stroke-width="2"/>
      </g>
      <g id="Group_101" data-name="Group 101" transform="translate(62.306 0)">
        <path id="Path_575" data-name="Path 575" d="M3493.915,596.931,3482.49,617.28,3499,623.961l-36.317,52.416-8.04,7.189,19.175-62.473,11.975-19.063Z" transform="translate(-3447.776 -588.685)" fill="#e08603"/>
        <path id="Path_576" data-name="Path 576" d="M3454.1,590.8l26.412,8.564-11.976,19.063,17.558,8.182L3449.359,680.9l4.738-45.316-11.6-3.813Z" transform="translate(-3442.494 -586.018)" fill="#ff9d00"/>
        <path id="Path_577" data-name="Path 577" d="M3463.025,587.12l8.892-4.781,25.644,8.246-8.123,5.1Z" transform="translate(-3451.422 -582.34)" fill="#e08603"/>
      </g>
    </g>
  </g>
</svg>
