<svg xmlns="http://www.w3.org/2000/svg" xmlns:xlink="http://www.w3.org/1999/xlink" width="323" height="323" viewBox="0 0 323 323">
  <defs>
    <clipPath id="clip-path">
      <path id="Path_432" data-name="Path 432" d="M1264.928,606.259l7.966-4.63c-6.66,3.871-10.185,12.478-10.22,25.046l-7.966,4.63C1254.744,618.737,1258.268,610.129,1264.928,606.259Z" transform="translate(-1254.708 -601.629)" fill="none"/>
    </clipPath>
    <clipPath id="clip-path-2">
      <path id="Path_448" data-name="Path 448" d="M1258.651,579.7l7.966-4.63a21.677,21.677,0,0,1,2.109-1.075c8.928-3.949,20.86-2.076,33.6,5.281l-7.966,4.63c-12.744-7.358-24.676-9.23-33.6-5.281A21.569,21.569,0,0,0,1258.651,579.7Z" transform="translate(-1258.651 -571.978)" fill="none"/>
    </clipPath>
    <clipPath id="clip-path-3">
      <path id="Path_485" data-name="Path 485" d="M1321.844,589.531l7.966-4.63c12.744,7.358,24.648,19.248,33.52,33.473,10.078,16.155,15.376,33.837,15.327,51.134l-7.966,4.629c.049-17.3-5.25-34.979-15.327-51.134C1346.492,608.778,1334.588,596.888,1321.844,589.531Z" transform="translate(-1321.844 -584.901)" fill="none"/>
    </clipPath>
    <clipPath id="clip-home-efficiency">
      <rect width="323" height="323"/>
    </clipPath>
  </defs>
  <g id="home-efficiency" clip-path="url(#clip-home-efficiency)">
    <rect width="323" height="323" fill="#fff"/>
    <g id="Group_268" data-name="Group 268" transform="translate(54 50)">
      <path id="Path_417" data-name="Path 417" d="M1151.919,773.922l73.274-41.683a10.553,10.553,0,0,1,10.509.042l121.383,70.325a10.554,10.554,0,0,1-.014,18.272l-73.807,42.615a10.554,10.554,0,0,1-10.638-.049l-120.849-71.258A10.553,10.553,0,0,1,1151.919,773.922Z" transform="translate(-1146.584 -641.069)" fill="#ffc47d"/>
      <g id="Group_84" data-name="Group 84" transform="translate(36.121)">
        <path id="Path_418" data-name="Path 418" d="M1240.257,616,1212,632.954l103.985,60.47,28.822-16.389Z" transform="translate(-1211.152 -591.121)" fill="#2355b7"/>
        <path id="Path_419" data-name="Path 419" d="M1211.63,645.5l-1.13,98.9,104.55,60.47V706.535Z" transform="translate(-1210.5 -603.95)" fill="#789fff"/>
        <path id="Path_420" data-name="Path 420" d="M1424.322,723.5v98.334L1395.5,838.788V740.454Z" transform="translate(-1290.95 -637.869)" fill="#0c3577"/>
        <g id="Group_83" data-name="Group 83" transform="translate(13.758)">
          <g id="Group_82" data-name="Group 82">
            <g id="Group_81" data-name="Group 81">
              <g id="Group_73" data-name="Group 73" transform="translate(11.225 16.757)">
                <g id="Group_72" data-name="Group 72" clip-path="url(#clip-path)">
                  <g id="Group_71" data-name="Group 71">
                    <path id="Path_421" data-name="Path 421" d="M1268.38,606.259l7.966-4.63a16.776,16.776,0,0,0-5.735,5.628l-7.966,4.63a16.773,16.773,0,0,1,5.735-5.628" transform="translate(-1258.159 -601.629)" fill="#282828"/>
                    <path id="Path_422" data-name="Path 422" d="M1261.649,616.218l7.966-4.63a22.029,22.029,0,0,0-1.293,2.35l-7.966,4.629a22.1,22.1,0,0,1,1.293-2.349" transform="translate(-1257.164 -605.96)" fill="#2a2a2a"/>
                    <path id="Path_423" data-name="Path 423" d="M1259.675,620.375l7.966-4.629q-.477,1.005-.885,2.1l-7.966,4.63q.407-1.1.885-2.1" transform="translate(-1256.483 -607.768)" fill="#2b2b2b"/>
                    <path id="Path_424" data-name="Path 424" d="M1258.278,624.1l7.966-4.63q-.361.972-.666,2.016l-7.966,4.63q.305-1.044.666-2.016" transform="translate(-1255.971 -609.386)" fill="#2d2d2d"/>
                    <path id="Path_425" data-name="Path 425" d="M1257.212,627.666l7.966-4.63q-.284.972-.519,2.005l-7.966,4.63q.235-1.033.519-2.005" transform="translate(-1255.571 -610.938)" fill="#2e2e2e"/>
                    <path id="Path_426" data-name="Path 426" d="M1256.383,631.214l7.966-4.63q-.224.981-.4,2.016l-7.966,4.63q.18-1.036.4-2.016" transform="translate(-1255.261 -612.481)" fill="#303030"/>
                    <path id="Path_427" data-name="Path 427" d="M1255.744,634.781l7.966-4.63q-.175,1.008-.307,2.067l-7.966,4.63q.132-1.059.307-2.067" transform="translate(-1255.025 -614.032)" fill="#313131"/>
                    <path id="Path_428" data-name="Path 428" d="M1255.267,638.438l7.966-4.63q-.131,1.045-.22,2.14l-7.966,4.63q.09-1.1.22-2.14" transform="translate(-1254.855 -615.622)" fill="#333"/>
                    <path id="Path_429" data-name="Path 429" d="M1254.942,642.225l7.966-4.63q-.089,1.093-.137,2.233l-7.966,4.63q.048-1.141.137-2.233" transform="translate(-1254.75 -617.269)" fill="#343434"/>
                    <path id="Path_430" data-name="Path 430" d="M1254.763,646.176l7.966-4.63q-.048,1.15-.054,2.346l-7.966,4.63q.006-1.2.054-2.346" transform="translate(-1254.708 -618.987)" fill="#363636"/>
                    <path id="Path_431" data-name="Path 431" d="M1254.708,650.328l7.966-4.63c0,.047,0,.094,0,.141l-7.966,4.63c0-.047,0-.094,0-.141" transform="translate(-1254.708 -620.793)" fill="#373737"/>
                  </g>
                </g>
              </g>
              <g id="Group_76" data-name="Group 76" transform="translate(13.454)">
                <g id="Group_75" data-name="Group 75" clip-path="url(#clip-path-2)">
                  <g id="Group_74" data-name="Group 74" transform="translate(0 0)">
                    <path id="Path_433" data-name="Path 433" d="M1258.651,580.758l7.966-4.63a21.664,21.664,0,0,1,2.109-1.075q.811-.358,1.652-.653l-7.966,4.63q-.842.294-1.652.653a21.583,21.583,0,0,0-2.109,1.075" transform="translate(-1258.651 -573.031)" fill="#282828"/>
                    <path id="Path_434" data-name="Path 434" d="M1265.307,578.361l7.966-4.63a23.556,23.556,0,0,1,3.213-.87l-7.966,4.629a23.544,23.544,0,0,0-3.213.871" transform="translate(-1261.545 -572.362)" fill="#2a2a2a"/>
                    <path id="Path_435" data-name="Path 435" d="M1270.992,577.193l7.966-4.629a25.985,25.985,0,0,1,2.713-.387l-7.966,4.63a25.99,25.99,0,0,0-2.713.386" transform="translate(-1264.018 -572.064)" fill="#2b2b2b"/>
                    <path id="Path_436" data-name="Path 436" d="M1275.793,576.72l7.966-4.63q1.21-.108,2.462-.112l-7.966,4.63q-1.252,0-2.462.112" transform="translate(-1266.105 -571.978)" fill="#2d2d2d"/>
                    <path id="Path_437" data-name="Path 437" d="M1280.149,576.607l7.966-4.63q1.143,0,2.321.079l-7.966,4.63q-1.177-.083-2.32-.079" transform="translate(-1268 -571.978)" fill="#2e2e2e"/>
                    <path id="Path_438" data-name="Path 438" d="M1284.255,576.747l7.966-4.63q1.1.077,2.229.23l-7.966,4.63q-1.127-.153-2.229-.23" transform="translate(-1269.785 -572.038)" fill="#303030"/>
                    <path id="Path_439" data-name="Path 439" d="M1288.2,577.154l7.966-4.63q1.078.146,2.18.361l-7.966,4.63q-1.1-.215-2.18-.361" transform="translate(-1271.5 -572.215)" fill="#313131"/>
                    <path id="Path_440" data-name="Path 440" d="M1292.056,577.792l7.966-4.63q1.063.207,2.146.478l-7.966,4.629q-1.083-.27-2.146-.478" transform="translate(-1273.177 -572.493)" fill="#333"/>
                    <path id="Path_441" data-name="Path 441" d="M1295.854,578.637l7.966-4.629q1.054.264,2.125.587l-7.966,4.63q-1.071-.324-2.125-.588" transform="translate(-1274.829 -572.861)" fill="#343434"/>
                    <path id="Path_442" data-name="Path 442" d="M1299.615,579.677l7.966-4.63q1.054.319,2.124.7l-7.966,4.63q-1.07-.377-2.124-.7" transform="translate(-1276.465 -573.312)" fill="#363636"/>
                    <path id="Path_443" data-name="Path 443" d="M1303.374,580.908l7.966-4.63q1.06.373,2.134.8l-7.966,4.629q-1.074-.43-2.134-.8" transform="translate(-1278.099 -573.848)" fill="#373737"/>
                    <path id="Path_444" data-name="Path 444" d="M1307.15,582.329l7.966-4.629q1.07.428,2.153.913l-7.966,4.63q-1.083-.485-2.153-.914" transform="translate(-1279.741 -574.466)" fill="#393939"/>
                    <path id="Path_445" data-name="Path 445" d="M1310.96,583.946l7.966-4.63q1.085.486,2.182,1.029l-7.966,4.63q-1.1-.542-2.183-1.029" transform="translate(-1281.398 -575.169)" fill="#3b3b3b"/>
                    <path id="Path_446" data-name="Path 446" d="M1314.822,585.766l7.966-4.63q1.107.548,2.224,1.152l-7.966,4.63q-1.117-.6-2.224-1.152" transform="translate(-1283.078 -575.96)" fill="#3c3c3c"/>
                    <path id="Path_447" data-name="Path 447" d="M1318.757,587.8l7.966-4.63q.869.471,1.745.976l-7.966,4.63q-.875-.505-1.745-.976" transform="translate(-1284.789 -576.847)" fill="#3e3e3e"/>
                  </g>
                </g>
              </g>
              <g id="Group_77" data-name="Group 77" transform="translate(0 4.629)">
                <path id="Path_449" data-name="Path 449" d="M1284.011,587.473c12.744,7.358,24.648,19.247,33.52,33.473,10.078,16.154,15.376,33.837,15.327,51.134l-11.225-6.48a74.063,74.063,0,0,0-11.588-39.32c-6.821-10.936-16.08-20.139-26.071-25.908s-19.275-7.271-26.137-4.235c-7.66,3.393-11.73,12.327-11.768,25.835l-11.225-6.481c.049-17.3,5.431-28.813,15.563-33.3C1259.335,578.243,1271.268,580.115,1284.011,587.473Z" transform="translate(-1234.845 -580.169)" fill="#292929"/>
              </g>
              <g id="Group_80" data-name="Group 80" transform="translate(49.166 7.303)">
                <g id="Group_79" data-name="Group 79" clip-path="url(#clip-path-3)">
                  <g id="Group_78" data-name="Group 78">
                    <path id="Path_450" data-name="Path 450" d="M1321.844,589.531l7.966-4.63q.266.153.532.31l-7.966,4.63q-.265-.156-.532-.31" transform="translate(-1321.844 -584.901)" fill="#3e3e3e"/>
                    <path id="Path_451" data-name="Path 451" d="M1322.785,590.079l7.966-4.63q1.154.679,2.3,1.407l-7.966,4.63q-1.144-.727-2.3-1.407" transform="translate(-1322.253 -585.139)" fill="#3f3f3f"/>
                    <path id="Path_452" data-name="Path 452" d="M1326.85,592.568l7.966-4.63q1.161.738,2.309,1.525l-7.966,4.63q-1.148-.787-2.309-1.525" transform="translate(-1324.021 -586.222)" fill="#414141"/>
                    <path id="Path_453" data-name="Path 453" d="M1330.936,595.267l7.966-4.63q1.172.8,2.331,1.656l-7.966,4.629q-1.158-.852-2.331-1.655" transform="translate(-1325.798 -587.395)" fill="#424242"/>
                    <path id="Path_454" data-name="Path 454" d="M1335.06,598.2l7.966-4.629q1.185.871,2.354,1.794l-7.966,4.63q-1.168-.921-2.354-1.794" transform="translate(-1327.591 -588.669)" fill="#444"/>
                    <path id="Path_455" data-name="Path 455" d="M1339.225,601.371l7.966-4.63q1.188.937,2.356,1.923l-7.966,4.629q-1.168-.986-2.356-1.923" transform="translate(-1329.402 -590.05)" fill="#454545"/>
                    <path id="Path_456" data-name="Path 456" d="M1343.394,604.773l7.966-4.629q1.175.992,2.33,2.032l-7.966,4.629q-1.154-1.04-2.33-2.032" transform="translate(-1331.215 -591.53)" fill="#474747"/>
                    <path id="Path_457" data-name="Path 457" d="M1347.517,608.369l7.966-4.629q1.141,1.028,2.261,2.1l-7.966,4.63q-1.12-1.074-2.261-2.1" transform="translate(-1333.008 -593.093)" fill="#484848"/>
                    <path id="Path_458" data-name="Path 458" d="M1351.518,612.09l7.966-4.63q1.089,1.045,2.156,2.132l-7.966,4.63q-1.067-1.087-2.156-2.132" transform="translate(-1334.748 -594.711)" fill="#4a4a4a"/>
                    <path id="Path_459" data-name="Path 459" d="M1355.333,615.862l7.966-4.63q1.029,1.049,2.036,2.134L1357.369,618q-1.006-1.085-2.036-2.133" transform="translate(-1336.407 -596.351)" fill="#4b4b4b"/>
                    <path id="Path_460" data-name="Path 460" d="M1358.935,619.637l7.966-4.629q.969,1.044,1.915,2.123l-7.966,4.629q-.946-1.078-1.915-2.123" transform="translate(-1337.973 -597.993)" fill="#4d4d4d"/>
                    <path id="Path_461" data-name="Path 461" d="M1362.324,623.393l7.966-4.629q.934,1.063,1.845,2.158l-7.966,4.63q-.91-1.095-1.845-2.158" transform="translate(-1339.447 -599.627)" fill="#626262"/>
                    <path id="Path_462" data-name="Path 462" d="M1365.589,627.212l7.966-4.63q.941,1.13,1.855,2.292l-7.966,4.63q-.915-1.161-1.855-2.292" transform="translate(-1340.867 -601.287)" fill="#6b6b6b"/>
                    <path id="Path_463" data-name="Path 463" d="M1368.872,631.267l7.966-4.63q1.014,1.288,1.994,2.612l-7.966,4.63q-.98-1.324-1.994-2.612" transform="translate(-1342.295 -603.05)" fill="#727272"/>
                    <path id="Path_464" data-name="Path 464" d="M1372.4,635.888l7.966-4.63q1.374,1.857,2.678,3.782l-7.966,4.63q-1.3-1.925-2.678-3.782" transform="translate(-1343.829 -605.06)" fill="#787878"/>
                    <path id="Path_465" data-name="Path 465" d="M1377.14,642.581l7.966-4.63q1.165,1.721,2.27,3.492.871,1.4,1.694,2.807l-7.966,4.63q-.823-1.41-1.694-2.807-1.1-1.771-2.27-3.492" transform="translate(-1345.89 -607.97)" fill="#7d7d7d"/>
                    <path id="Path_466" data-name="Path 466" d="M1384.155,653.727l7.966-4.63q1.076,1.845,2.071,3.713l-7.966,4.63q-.994-1.868-2.071-3.713" transform="translate(-1348.941 -612.817)" fill="#787878"/>
                    <path id="Path_467" data-name="Path 467" d="M1387.819,660.3l7.966-4.63q.683,1.284,1.328,2.579l-7.966,4.629q-.644-1.295-1.328-2.579" transform="translate(-1350.534 -615.674)" fill="#727272"/>
                    <path id="Path_468" data-name="Path 468" d="M1390.169,664.86l7.966-4.629q.554,1.114,1.08,2.235l-7.966,4.629q-.526-1.121-1.08-2.235" transform="translate(-1351.556 -617.659)" fill="#6b6b6b"/>
                    <path id="Path_469" data-name="Path 469" d="M1392.08,668.814l7.966-4.629q.5,1.057.966,2.121l-7.966,4.63q-.47-1.064-.966-2.122" transform="translate(-1352.387 -619.379)" fill="#626262"/>
                    <path id="Path_470" data-name="Path 470" d="M1393.789,672.568l7.966-4.63q.462,1.047.9,2.1l-7.966,4.63q-.437-1.052-.9-2.1" transform="translate(-1353.13 -621.01)" fill="#4d4d4d"/>
                    <path id="Path_471" data-name="Path 471" d="M1395.38,676.281l7.966-4.63q.441,1.06.855,2.123l-7.966,4.63q-.414-1.064-.854-2.123" transform="translate(-1353.822 -622.625)" fill="#4b4b4b"/>
                    <path id="Path_472" data-name="Path 472" d="M1396.892,680.038l7.966-4.63q.427,1.1.827,2.2l-7.966,4.629q-.4-1.1-.827-2.2" transform="translate(-1354.479 -624.259)" fill="#4a4a4a"/>
                    <path id="Path_473" data-name="Path 473" d="M1398.355,683.93l7.966-4.629q.415,1.146.8,2.3l-7.966,4.63q-.385-1.15-.8-2.3" transform="translate(-1355.116 -625.952)" fill="#484848"/>
                    <path id="Path_474" data-name="Path 474" d="M1399.772,687.995l7.966-4.63q.4,1.194.767,2.391l-7.966,4.63q-.367-1.2-.767-2.391" transform="translate(-1355.732 -627.719)" fill="#474747"/>
                    <path id="Path_475" data-name="Path 475" d="M1401.129,692.225l7.966-4.63q.378,1.234.722,2.472l-7.966,4.63q-.343-1.238-.722-2.472" transform="translate(-1356.322 -629.559)" fill="#454545"/>
                    <path id="Path_476" data-name="Path 476" d="M1402.406,696.6l7.966-4.63q.352,1.267.666,2.536l-7.966,4.63q-.315-1.27-.666-2.536" transform="translate(-1356.877 -631.461)" fill="#444"/>
                    <path id="Path_477" data-name="Path 477" d="M1403.585,701.088l7.966-4.63q.319,1.289.6,2.579l-7.966,4.629q-.281-1.29-.6-2.578" transform="translate(-1357.39 -633.413)" fill="#424242"/>
                    <path id="Path_478" data-name="Path 478" d="M1404.647,705.65l7.966-4.629q.284,1.3.529,2.606l-7.966,4.63q-.245-1.3-.529-2.607" transform="translate(-1357.852 -635.397)" fill="#414141"/>
                    <path id="Path_479" data-name="Path 479" d="M1405.583,710.263l7.966-4.63q.247,1.316.454,2.632l-7.966,4.63q-.207-1.316-.454-2.632" transform="translate(-1358.259 -637.403)" fill="#3f3f3f"/>
                    <path id="Path_480" data-name="Path 480" d="M1406.387,714.921l7.966-4.63q.209,1.332.379,2.664l-7.966,4.63q-.169-1.332-.379-2.664" transform="translate(-1358.609 -639.428)" fill="#3e3e3e"/>
                    <path id="Path_481" data-name="Path 481" d="M1407.057,719.634l7.966-4.63q.171,1.352.3,2.7l-7.966,4.629q-.129-1.351-.3-2.7" transform="translate(-1358.9 -641.478)" fill="#3c3c3c"/>
                    <path id="Path_482" data-name="Path 482" d="M1407.588,724.417l7.966-4.629q.132,1.383.22,2.765l-7.966,4.629q-.087-1.382-.22-2.765" transform="translate(-1359.131 -643.558)" fill="#3b3b3b"/>
                    <path id="Path_483" data-name="Path 483" d="M1407.977,729.31l7.966-4.629q.09,1.423.133,2.843l-7.966,4.63q-.043-1.421-.133-2.843" transform="translate(-1359.3 -645.686)" fill="#393939"/>
                    <path id="Path_484" data-name="Path 484" d="M1408.212,734.341l7.966-4.63q.041,1.386.037,2.769l-7.966,4.629q0-1.383-.037-2.769" transform="translate(-1359.402 -647.873)" fill="#373737"/>
                  </g>
                </g>
              </g>
            </g>
          </g>
        </g>
        <path id="Path_486" data-name="Path 486" d="M1395.5,783.806l19.215-11.305v11.3L1395.5,794.744Z" transform="translate(-1290.95 -659.177)" fill="#82bae0"/>
        <path id="Path_487" data-name="Path 487" d="M1395.5,817.806l19.215-11.306v11.3L1395.5,828.744Z" transform="translate(-1290.95 -673.962)" fill="#82bae0"/>
        <path id="Path_488" data-name="Path 488" d="M1366.8,775.54l-37.3-22.04v10.738l37.3,22.04Z" transform="translate(-1262.249 -650.915)" fill="#b6deff"/>
        <path id="Path_489" data-name="Path 489" d="M1366.8,809.54l-37.3-22.04v10.738l37.3,22.04Z" transform="translate(-1262.249 -665.7)" fill="#b6deff"/>
      </g>
    </g>
  </g>
</svg>
