<svg xmlns="http://www.w3.org/2000/svg" xmlns:xlink="http://www.w3.org/1999/xlink" width="323" height="323" viewBox="0 0 323 323">
  <defs>
    <clipPath id="clip-home-efficiency">
      <rect width="323" height="323"/>
    </clipPath>
  </defs>
  <g id="home-efficiency" clip-path="url(#clip-home-efficiency)">
    <rect width="323" height="323" fill="#fff"/>
    <g id="Group_267" data-name="Group 267" transform="translate(-800.568 -2266.469)">
      <path id="Path_559" data-name="Path 559" d="M2842.739,797.922l73.273-41.683a10.553,10.553,0,0,1,10.509.042L3047.9,826.605a10.554,10.554,0,0,1-.014,18.272l-73.808,42.615a10.553,10.553,0,0,1-10.638-.049L2842.6,816.186A10.553,10.553,0,0,1,2842.739,797.922Z" transform="translate(-1982.835 1648.77)" fill="#ffc47d"/>
      <g id="Group_89" data-name="Group 89" transform="translate(904.785 2317.469)">
        <path id="Path_561" data-name="Path 561" d="M2925.017,720.222V781l52.632,30.388V794.208s-9.916-7.046-9.535-16.074,9.535-4.184,9.535-4.184v-22.9l-19.069-10.57s.763,11.891-7.247,6.826-7.628-15.414-7.628-15.414Z" transform="translate(-2925.017 -653.637)" fill="#2355b7"/>
        <g id="Group_86" data-name="Group 86" transform="translate(0 0)">
          <path id="Path_562" data-name="Path 562" d="M2925.017,613.653v60.554l18.688,11.45s-.381,9.468,7.247,15.193,7.628-6.605,7.628-6.605l19.069,10.569V678.831s-10.3-8.147-9.535-15.193,9.535-2.862,9.535-2.862V643.82Z" transform="translate(-2925.017 -607.295)" fill="#0c3577"/>
          <path id="Path_563" data-name="Path 563" d="M2925.017,608.761l10.126-6.359,52.847,30.387-10.129,6.606Z" transform="translate(-2925.017 -602.402)" fill="#06285b"/>
        </g>
        <g id="Group_87" data-name="Group 87" transform="translate(42.693 30.171)">
          <path id="Path_564" data-name="Path 564" d="M3062.873,697.418l-.19,60.444-17.735-10.019s0-9.689-7.628-14.533-7.246,5.945-7.246,5.945l-19.832-11.45V701.822s-11.061-9.469-9.535-15.194,9.535-2.862,9.535-2.862V667.031Z" transform="translate(-3000.561 -660.677)" fill="#789fff"/>
          <path id="Path_565" data-name="Path 565" d="M3017.7,662.147l10.127-6.359,52.847,30.387-10.129,6.606Z" transform="translate(-3008.016 -655.789)" fill="#5286ef"/>
          <path id="Path_566" data-name="Path 566" d="M3121.023,709.558v60.653l-10.541,6.145.1-60.191Z" transform="translate(-3048.362 -679.171)" fill="#2a6bd3"/>
        </g>
        <g id="Group_88" data-name="Group 88" transform="translate(42.558 97.214)">
          <path id="Path_567" data-name="Path 567" d="M3062.576,804.367v60.774l-52.632-30.387V817.579s-10.679-7.927-9.535-16.955,9.535-3.3,9.535-3.3v-22.9l19.833,11.45s-.381-10.79,7.246-5.945,7.628,14.533,7.628,14.533Z" transform="translate(-3000.323 -774.42)" fill="#ff9d00"/>
          <path id="Path_568" data-name="Path 568" d="M3121.019,816.978V877.63l-10.541,6.145.1-60.191Z" transform="translate(-3048.225 -792.927)" fill="#e08603"/>
        </g>
      </g>
    </g>
  </g>
</svg>
