<svg id="Layer_1" data-name="Layer 1" xmlns="http://www.w3.org/2000/svg" viewBox="0 0 132 132"><defs><style>.cls-1{fill:#3783dc;}.cls-2{fill:#82b8f9;}.cls-3{fill:#ffac1a;}.cls-4{fill:#0b5cad;}.cls-5{fill:#d68400;}.cls-6{fill:#ef9300;}</style></defs><title>slack-logo copy 2</title><polyline class="cls-1" points="118.7 32.41 96.69 45.11 66 62.84 66 2.01 66.02 2 118.7 32.41"/><polygon class="cls-2" points="66 2 66 62.84 35.45 45.2 35.45 45.24 35.26 45.13 35.3 45.11 13.33 32.42 13.3 32.41 65.98 2 66 2"/><polyline class="cls-3" points="96.72 45.12 66.02 62.84 35.47 45.2 35.47 45.24 35.28 45.14 35.32 45.11"/><path class="cls-3" d="M96.72,45.2,69.41,29.43a6.77,6.77,0,0,0-6.77,0L39.86,42.58c-2.41,1.39-4.39,2.52-4.39,2.51s0,0-.09,0-.09.06-.08.07h0"/><polyline class="cls-4" points="68.1 127.44 68.12 102.03 68.14 66.59 120.8 97.04 120.8 97.06 68.1 127.44"/><polygon class="cls-1" points="120.81 97.05 68.14 66.59 98.71 48.97 98.67 48.95 98.86 48.84 98.86 48.89 120.84 36.22 120.86 36.21 120.81 97.03 120.81 97.05"/><polyline class="cls-5" points="68.1 102.05 68.13 66.61 98.69 48.99 98.66 48.97 98.84 48.86 98.84 48.91"/><path class="cls-5" d="M68,102,95.36,86.26a6.78,6.78,0,0,0,3.39-5.85l0-26.3c0-2.79,0-5.07,0-5.06s0,0,0-.1,0-.1,0-.1h0"/><polyline class="cls-4" points="63.8 127.44 63.78 102.03 63.75 66.59 11.1 97.04 11.1 97.06 63.8 127.44"/><polygon class="cls-2" points="11.09 97.05 63.75 66.59 33.19 48.97 33.23 48.95 33.04 48.84 33.04 48.89 11.06 36.22 11.03 36.21 11.08 97.03 11.09 97.05"/><polyline class="cls-6" points="63.8 102.05 63.77 66.61 33.2 48.99 33.24 48.97 33.05 48.86 33.05 48.91"/><path class="cls-6" d="M63.86,102,36.54,86.26a6.76,6.76,0,0,1-3.39-5.85l0-26.3c0-2.79,0-5.07,0-5.06s0,0,0-.1,0-.1,0-.1h0"/></svg>