<svg xmlns="http://www.w3.org/2000/svg" xmlns:xlink="http://www.w3.org/1999/xlink" width="219.848" height="227.739" viewBox="0 0 219.848 227.739">
  <defs>
    <clipPath id="clip-path">
      <path id="Path_718" data-name="Path 718" d="M1157.793,194.653l22.155-12.876c15.82-9.193,39.426-7.2,65.765,8.005l-22.154,12.875C1197.219,187.45,1173.613,185.459,1157.793,194.653Z" transform="translate(-1157.793 -176.244)" fill="none"/>
    </clipPath>
    <clipPath id="clip-path-2">
      <path id="Path_726" data-name="Path 726" d="M1262.4,210.654l22.154-12.875c47.477,27.411,85.86,87.38,85.728,133.952a63.863,63.863,0,0,1-3.531,21.753L1344.6,366.359a63.859,63.859,0,0,0,3.532-21.753C1348.261,298.035,1309.878,238.065,1262.4,210.654Z" transform="translate(-1262.401 -197.779)" fill="none"/>
    </clipPath>
  </defs>
  <g id="Group_181" data-name="Group 181" transform="translate(-1423.762 -3644.505)">
    <g id="Group_146" data-name="Group 146" transform="translate(1440.357 3644.505)">
      <g id="Group_145" data-name="Group 145" transform="translate(0 0)">
        <g id="Group_144" data-name="Group 144">
          <g id="Group_136" data-name="Group 136" transform="translate(168.4 169.244)">
            <path id="Path_713" data-name="Path 713" d="M1393.143,458.32l22.155-12.875,12.7,45.62L1405.84,503.94Z" transform="translate(-1393.143 -445.445)" fill="#9d6100"/>
          </g>
          <g id="Group_139" data-name="Group 139" transform="translate(20.437)">
            <g id="Group_138" data-name="Group 138" clip-path="url(#clip-path)">
              <g id="Group_137" data-name="Group 137" transform="translate(0 0)">
                <path id="Path_714" data-name="Path 714" d="M1157.793,194.86l22.155-12.876a41.343,41.343,0,0,1,16.062-5.183l-22.155,12.875a41.337,41.337,0,0,0-16.062,5.184" transform="translate(-1157.793 -176.451)" fill="#855200"/>
                <path id="Path_715" data-name="Path 715" d="M1183.341,189.47l22.155-12.875a61.915,61.915,0,0,1,21.284,1.5l-22.155,12.875a61.927,61.927,0,0,0-21.284-1.5" transform="translate(-1167.279 -176.244)" fill="#8a5500"/>
                <path id="Path_716" data-name="Path 716" d="M1217.195,192.062l22.155-12.875a101.338,101.338,0,0,1,24.147,9.324l-22.155,12.875a101.337,101.337,0,0,0-24.147-9.324" transform="translate(-1179.849 -177.336)" fill="#8f5800"/>
                <path id="Path_717" data-name="Path 717" d="M1255.6,206.893l22.154-12.875q2.124,1.124,4.273,2.365l-22.154,12.875q-2.149-1.241-4.273-2.365" transform="translate(-1194.111 -182.843)" fill="#945b00"/>
              </g>
            </g>
          </g>
          <g id="Group_140" data-name="Group 140" transform="translate(0 12.875)">
            <path id="Path_719" data-name="Path 719" d="M1211.489,210.262c47.477,27.411,85.86,87.381,85.728,133.952a63.86,63.86,0,0,1-3.532,21.753l12.7,45.62-31.313-23.752c-15.783,8.1-38.649,5.733-64.058-8.936-47.477-27.411-85.856-87.384-85.724-133.95S1164.011,182.851,1211.489,210.262Z" transform="translate(-1125.285 -196.723)" fill="#f89900"/>
          </g>
          <g id="Group_143" data-name="Group 143" transform="translate(86.203 13.539)">
            <g id="Group_142" data-name="Group 142" clip-path="url(#clip-path-2)">
              <g id="Group_141" data-name="Group 141">
                <path id="Path_720" data-name="Path 720" d="M1262.4,210.654l22.154-12.875a163.187,163.187,0,0,1,30.853,23.421l-22.155,12.875a163.2,163.2,0,0,0-30.852-23.421" transform="translate(-1262.401 -197.779)" fill="#945b00"/>
                <path id="Path_721" data-name="Path 721" d="M1311.475,247.907l22.155-12.875a199.254,199.254,0,0,1,30.319,37.083l-22.155,12.875a199.253,199.253,0,0,0-30.319-37.083" transform="translate(-1280.623 -211.611)" fill="#995e00"/>
                <path id="Path_722" data-name="Path 722" d="M1359.7,306.891l22.155-12.875a178.413,178.413,0,0,1,16.65,33.241l-22.154,12.875a178.463,178.463,0,0,0-16.651-33.241" transform="translate(-1298.529 -233.513)" fill="#945b00"/>
                <path id="Path_723" data-name="Path 723" d="M1386.185,359.765l22.154-12.875a134.773,134.773,0,0,1,5.974,20.967l-22.155,12.875a134.783,134.783,0,0,0-5.973-20.967" transform="translate(-1308.363 -253.145)" fill="#8f5800"/>
                <path id="Path_724" data-name="Path 724" d="M1395.686,393.115l22.155-12.875a99.318,99.318,0,0,1,1.933,19.24c0,.07,0,.14,0,.209l-22.155,12.875c0-.07,0-.14,0-.209a99.329,99.329,0,0,0-1.933-19.24" transform="translate(-1311.891 -265.529)" fill="#8a5500"/>
                <path id="Path_725" data-name="Path 725" d="M1396.674,424.052l22.155-12.875a63.706,63.706,0,0,1-3.531,21.544L1393.143,445.6a63.7,63.7,0,0,0,3.531-21.544" transform="translate(-1310.947 -277.016)" fill="#855200"/>
              </g>
            </g>
          </g>
        </g>
      </g>
    </g>
    <ellipse id="Ellipse_235" data-name="Ellipse 235" cx="54.786" cy="97.246" rx="54.786" ry="97.246" transform="translate(1423.761 3711.554) rotate(-37.605)" fill="#f2f2f2"/>
    <g id="Group_162" data-name="Group 162" transform="translate(1468.943 3705.822)">
      <g id="Group_161" data-name="Group 161" transform="translate(0 0)">
        <g id="Group_153" data-name="Group 153" transform="translate(17.266 27.934)">
          <path id="Path_730" data-name="Path 730" d="M1237.893,327.238a108.462,108.462,0,0,1,19.49,14.612,133.853,133.853,0,0,1,17.777,20.4c2.491,3.513,3.045,7.842,1.235,9.671-1.093,1.108-2.8,1.046-4.534.047a10.675,10.675,0,0,1-3.253-3.091,109.5,109.5,0,0,0-14.543-16.68,90.027,90.027,0,0,0-16.208-12.144,58.256,58.256,0,0,0-16.225-6.581,31.66,31.66,0,0,0-14.59-.14,4.468,4.468,0,0,1-3.262-.67,11.849,11.849,0,0,1-4.517-5.272c-1.794-3.91-1.221-7.588,1.282-8.218a38.792,38.792,0,0,1,17.834.161A70.163,70.163,0,0,1,1237.893,327.238Z" transform="translate(-1198.218 -318.208)" fill="#f7931e"/>
        </g>
        <g id="Group_154" data-name="Group 154" transform="translate(89.778 45.336)">
          <path id="Path_731" data-name="Path 731" d="M1335.082,365.391c2.442,3.558,2.9,7.852,1.026,9.583-1.1,1.018-2.766.928-4.445-.041a10.8,10.8,0,0,1-3.374-3.262,167.428,167.428,0,0,0-14.733-18.539c3.546-.341,5.956-2.893,6.237-7.244A193.577,193.577,0,0,1,1335.082,365.391Z" transform="translate(-1313.557 -345.887)" fill="#f7931e"/>
        </g>
        <g id="Group_155" data-name="Group 155" transform="translate(34.288 55.655)">
          <path id="Path_732" data-name="Path 732" d="M1247.709,367.572a70.018,70.018,0,0,1,19.707,17.674c2.62,3.37,3.423,7.789,1.8,9.869-1.059,1.358-2.89,1.386-4.761.306a10.332,10.332,0,0,1-2.911-2.633,49.379,49.379,0,0,0-13.872-12.4c-4.917-2.839-9.81-4.163-13.9-3.629a4.734,4.734,0,0,1-2.918-.732,12.066,12.066,0,0,1-4.747-5.795c-1.605-3.944-.775-7.419,1.851-7.76C1233.959,361.7,1240.849,363.616,1247.709,367.572Z" transform="translate(-1225.293 -362.301)" fill="#f7931e"/>
        </g>
        <g id="Group_156" data-name="Group 156" transform="translate(82.167 31.169)">
          <path id="Path_733" data-name="Path 733" d="M1307.784,325.3c.724,1.383.627,2.788-.209,3.136l-3.066,1.277-3.058-4.822,3.5-1.46a1.51,1.51,0,0,1,1.316.2A4.149,4.149,0,0,1,1307.784,325.3Z" transform="translate(-1301.451 -323.354)" fill="#fff"/>
        </g>
        <g id="Group_157" data-name="Group 157" transform="translate(75.329 33.989)">
          <path id="Path_734" data-name="Path 734" d="M1291.272,329.116l3.065-1.277,3.058,4.822-3.5,1.46a1.5,1.5,0,0,1-1.315-.195,4.16,4.16,0,0,1-1.514-1.674C1290.338,330.873,1290.43,329.466,1291.272,329.116Z" transform="translate(-1290.574 -327.839)" fill="#fff"/>
        </g>
        <g id="Group_158" data-name="Group 158" transform="translate(75.356 25.617)">
          <path id="Path_735" data-name="Path 735" d="M1292.631,314.8a4,4,0,0,1,1.313,1.32l3.484,5.495,3.058,4.822,3.048,4.806c.832,1.317.921,2.828.192,3.368a1.36,1.36,0,0,1-1.52-.078,3.982,3.982,0,0,1-1.312-1.321l-3.484-5.494-3.058-4.822-3.048-4.807c-.837-1.315-.921-2.823-.192-3.367A1.358,1.358,0,0,1,1292.631,314.8Z" transform="translate(-1290.617 -314.523)" fill="#fff"/>
        </g>
        <g id="Group_159" data-name="Group 159" transform="translate(67.74 20.049)">
          <path id="Path_736" data-name="Path 736" d="M1292.693,307.867c7.815,4.512,14.135,14.476,14.113,22.253q0,.426-.028.832c-.281,4.352-2.69,6.9-6.237,7.244a13.669,13.669,0,0,1-7.928-2.162,31.046,31.046,0,0,1-13.309-17.066,18.388,18.388,0,0,1-.8-5.189c.009-2.95.928-5.162,2.493-6.525C1283.555,305.025,1287.842,305.067,1292.693,307.867Zm6.344,20.086-3.048-4.806,3.066-1.277c.837-.348.934-1.753.209-3.136a4.149,4.149,0,0,0-1.513-1.672,1.51,1.51,0,0,0-1.316-.2l-3.5,1.46-3.484-5.495a3.991,3.991,0,0,0-1.313-1.32,1.357,1.357,0,0,0-1.518-.079c-.729.544-.645,2.053.192,3.367l3.048,4.807-3.065,1.277c-.842.35-.934,1.757-.21,3.136a4.16,4.16,0,0,0,1.515,1.674,1.5,1.5,0,0,0,1.315.195l3.5-1.46,3.484,5.494a3.981,3.981,0,0,0,1.312,1.321,1.36,1.36,0,0,0,1.52.078c.729-.54.641-2.051-.192-3.368" transform="translate(-1278.503 -305.667)" fill="#f7931e"/>
        </g>
        <g id="Group_160" data-name="Group 160">
          <path id="Path_737" data-name="Path 737" d="M1227.571,286.572a140.42,140.42,0,0,1,13.417,8.841c-1.565,1.364-2.484,3.575-2.493,6.525a18.388,18.388,0,0,0,.8,5.189,124.146,124.146,0,0,0-11.761-7.743,86.469,86.469,0,0,0-25.261-10.075c-8.121-1.69-15.784-1.624-22.573.412a4.381,4.381,0,0,1-3.382-.638A11.781,11.781,0,0,1,1171.89,284c-1.863-3.888-1.382-7.639,1.073-8.37,7.867-2.351,16.676-2.412,25.934-.49A98.156,98.156,0,0,1,1227.571,286.572Z" transform="translate(-1170.755 -273.776)" fill="#f7931e"/>
        </g>
      </g>
    </g>
  </g>
</svg>
