<svg xmlns="http://www.w3.org/2000/svg" xmlns:xlink="http://www.w3.org/1999/xlink" width="207.555" height="220.496" viewBox="0 0 207.555 220.496">
  <defs>
    <clipPath id="clip-path">
      <path id="Path_704" data-name="Path 704" d="M634.231,231.988l21.8-12.671c15.571-9.049,38.8-7.089,64.726,7.878l-21.8,12.671C673.034,224.9,649.8,222.94,634.231,231.988Z" transform="translate(-634.231 -213.871)" fill="none"/>
    </clipPath>
    <clipPath id="clip-path-2">
      <path id="Path_712" data-name="Path 712" d="M824.9,409.246l-21.8,12.671c12.494-7.261,20.054-21.611,20.113-42.017.13-45.833-37.636-104.846-84.36-131.822l21.8-12.671c46.724,26.976,84.49,85.99,84.36,131.822C844.951,387.635,837.391,401.985,824.9,409.246Z" transform="translate(-738.845 -235.407)" fill="none"/>
    </clipPath>
  </defs>
  <g id="Group_180" data-name="Group 180" transform="translate(-1216 -3316.421)">
    <g id="Group_135" data-name="Group 135" transform="translate(1223.184 3317.094)">
      <g id="Group_134" data-name="Group 134" transform="translate(0 0)">
        <g id="Group_133" data-name="Group 133">
          <g id="Group_128" data-name="Group 128" transform="translate(29.481)">
            <g id="Group_127" data-name="Group 127" clip-path="url(#clip-path)">
              <g id="Group_126" data-name="Group 126" transform="translate(0 0)">
                <path id="Path_700" data-name="Path 700" d="M634.231,232.2l21.8-12.671a40.693,40.693,0,0,1,15.808-5.1l-21.8,12.671a40.7,40.7,0,0,0-15.808,5.1" transform="translate(-634.231 -214.084)" fill="#3e5385"/>
                <path id="Path_701" data-name="Path 701" d="M659.781,226.887l21.8-12.671a60.957,60.957,0,0,1,20.948,1.476l-21.8,12.671a60.955,60.955,0,0,0-20.948-1.476" transform="translate(-643.973 -213.871)" fill="#41568a"/>
                <path id="Path_702" data-name="Path 702" d="M693.638,229.485l21.8-12.671a99.766,99.766,0,0,1,23.765,9.177l-21.8,12.671a99.78,99.78,0,0,0-23.765-9.177" transform="translate(-656.882 -214.993)" fill="#43598f"/>
                <path id="Path_703" data-name="Path 703" d="M732.049,244.317l21.8-12.671q2.09,1.106,4.205,2.327l-21.8,12.671q-2.115-1.221-4.2-2.327" transform="translate(-671.528 -220.648)" fill="#465c94"/>
              </g>
            </g>
          </g>
          <g id="Group_129" data-name="Group 129" transform="translate(0 12.671)">
            <path id="Path_705" data-name="Path 705" d="M680.789,247.675c46.724,26.976,84.49,85.99,84.36,131.822s-38.107,61.115-84.831,34.139c-25.005-14.437-47.448-38.052-62.885-63.91L586.582,337.5l12.708-30.35a102.907,102.907,0,0,1-3.339-25.343C596.081,235.978,634.066,220.7,680.789,247.675Z" transform="translate(-586.582 -234.35)" fill="#759af8"/>
          </g>
          <g id="Group_132" data-name="Group 132" transform="translate(94.207 13.325)">
            <g id="Group_131" data-name="Group 131" clip-path="url(#clip-path-2)">
              <g id="Group_130" data-name="Group 130">
                <path id="Path_706" data-name="Path 706" d="M738.845,248.078l21.8-12.671a160.593,160.593,0,0,1,30.36,23.047l-21.8,12.671a160.589,160.589,0,0,0-30.36-23.047" transform="translate(-738.845 -235.407)" fill="#465c94"/>
                <path id="Path_707" data-name="Path 707" d="M787.915,285.327l21.8-12.671a196.073,196.073,0,0,1,29.833,36.489l-21.8,12.671a196.06,196.06,0,0,0-29.833-36.489" transform="translate(-757.555 -249.609)" fill="#485f99"/>
                <path id="Path_708" data-name="Path 708" d="M836.133,344.3l21.8-12.671a175.605,175.605,0,0,1,16.385,32.712l-21.8,12.671A175.586,175.586,0,0,0,836.133,344.3" transform="translate(-775.94 -272.096)" fill="#465c94"/>
                <path id="Path_709" data-name="Path 709" d="M862.615,397.173l21.8-12.671a132.633,132.633,0,0,1,5.88,20.637l-21.8,12.671a132.633,132.633,0,0,0-5.88-20.637" transform="translate(-786.037 -292.255)" fill="#43598f"/>
                <path id="Path_710" data-name="Path 710" d="M872.118,430.527l21.8-12.671a97.767,97.767,0,0,1,1.9,18.938c0,.073,0,.146,0,.218l-21.8,12.671c0-.072,0-.145,0-.218a97.77,97.77,0,0,0-1.9-18.938" transform="translate(-789.66 -304.972)" fill="#41568a"/>
                <path id="Path_711" data-name="Path 711" d="M862.8,461.488l21.8-12.671c-.111,20.29-7.662,34.564-20.111,41.8l-21.8,12.671c12.45-7.235,20-21.509,20.111-41.8" transform="translate(-778.438 -316.777)" fill="#3e5385"/>
              </g>
            </g>
          </g>
        </g>
      </g>
    </g>
    <ellipse id="Ellipse_234" data-name="Ellipse 234" cx="54.675" cy="97.048" rx="54.675" ry="97.048" transform="translate(1216 3383.146) rotate(-37.605)" fill="#f2f2f2"/>
    <g id="Group_152" data-name="Group 152" transform="translate(1262.551 3380.626)">
      <g id="Group_151" data-name="Group 151" transform="translate(0 0)">
        <g id="Group_150" data-name="Group 150">
          <g id="Group_147" data-name="Group 147" transform="translate(34.454 55.93)">
            <path id="Path_727" data-name="Path 727" d="M726.1,411.931a66.107,66.107,0,0,1,18.6,16.67c1.546,1.988,2.021,4.6,1.064,5.829-.624.8-1.705.819-2.81.181a6.117,6.117,0,0,1-1.721-1.555A53.842,53.842,0,0,0,726.08,419.5c-5.341-3.083-10.67-4.537-15.175-3.951a2.8,2.8,0,0,1-1.723-.433,7.111,7.111,0,0,1-2.8-3.42c-.951-2.331-.458-4.384,1.093-4.584C713.1,406.386,719.615,408.19,726.1,411.931Z" transform="translate(-705.897 -406.953)" fill="#39b54a"/>
          </g>
          <g id="Group_148" data-name="Group 148" transform="translate(17.348 28.072)">
            <path id="Path_728" data-name="Path 728" d="M715.8,370.686c12.795,7.392,25.6,19.1,36.1,33.9,1.47,2.072,1.8,4.629.728,5.713a2.133,2.133,0,0,1-2.675.026,6.313,6.313,0,0,1-1.921-1.825c-9.264-13.064-20.732-23.6-32.237-30.237-11.527-6.66-23.025-9.388-32.338-7.045a2.636,2.636,0,0,1-1.925-.4,7,7,0,0,1-2.666-3.11c-1.062-2.313-.72-4.484.757-4.855C690.18,360.219,703.007,363.306,715.8,370.686Z" transform="translate(-678.249 -361.928)" fill="#39b54a"/>
          </g>
          <g id="Group_149" data-name="Group 149">
            <path id="Path_729" data-name="Path 729" d="M704.982,329.1c19.029,10.987,38.066,28.652,53.358,50.944,1.442,2.106,1.712,4.64.605,5.664a2.172,2.172,0,0,1-2.625-.028,6.364,6.364,0,0,1-1.992-1.927c-14.02-20.447-31.672-36.872-49.369-47.09s-35.38-14.193-49.47-9.976a2.576,2.576,0,0,1-2-.374,6.961,6.961,0,0,1-2.614-3c-1.1-2.3-.814-4.512.635-4.948C666.882,313.777,685.957,318.115,704.982,329.1Z" transform="translate(-650.21 -316.556)" fill="#39b54a"/>
          </g>
        </g>
      </g>
    </g>
  </g>
</svg>
