<svg xmlns="http://www.w3.org/2000/svg" xmlns:xlink="http://www.w3.org/1999/xlink" width="588.328" height="481.906" viewBox="0 0 588.328 481.906">
  <defs>
    <filter id="proj-info" x="0" y="0" width="588.328" height="481.906" filterUnits="userSpaceOnUse">
      <feOffset dy="5" input="SourceAlpha"/>
      <feGaussianBlur stdDeviation="10" result="blur"/>
      <feFlood flood-opacity="0.251"/>
      <feComposite operator="in" in2="blur"/>
      <feComposite in="SourceGraphic"/>
    </filter>
    <filter id="Rectangle_106" x="426.256" y="393.235" width="114.053" height="60.019" filterUnits="userSpaceOnUse">
      <feOffset dy="5" input="SourceAlpha"/>
      <feGaussianBlur stdDeviation="5" result="blur-2"/>
      <feFlood flood-opacity="0.161"/>
      <feComposite operator="in" in2="blur-2"/>
      <feComposite in="SourceGraphic"/>
    </filter>
    <filter id="Rectangle_103" x="40.52" y="235.642" width="507.287" height="102.636" filterUnits="userSpaceOnUse">
      <feOffset dy="5" input="SourceAlpha"/>
      <feGaussianBlur stdDeviation="7.5" result="blur-3"/>
      <feFlood flood-opacity="0.161"/>
      <feComposite operator="in" in2="blur-3"/>
      <feComposite in="SourceGraphic"/>
    </filter>
  </defs>
  <g id="Group_177" data-name="Group 177" transform="translate(-1103.672 -1892)">
    <g transform="matrix(1, 0, 0, 1, 1103.67, 1892)" filter="url(#proj-info)">
      <g id="proj-info-2" data-name="proj-info" transform="translate(30 25)" fill="#fff" stroke="rgba(201,201,201,0.64)" stroke-width="1">
        <rect width="528.328" height="421.906" rx="10" stroke="none"/>
        <rect x="0.5" y="0.5" width="527.328" height="420.906" rx="9.5" fill="none"/>
      </g>
    </g>
    <g id="proj-info-close" transform="translate(1145.679 1929.007)">
      <path id="Path_132" data-name="Path 132" d="M22.007,11.214,20.794,10,16,14.79,11.214,10,10,11.214,14.79,16,10,20.794l1.214,1.214L16,17.217l4.79,4.79,1.214-1.214L17.217,16Z" transform="translate(-10 -10)" fill="#111"/>
    </g>
    <text id="File_Upload" data-name="File Upload" transform="translate(1337.799 1957.011)" fill="#5f5f5f" font-size="23" font-family="BentonSans-Regular, Benton Sans"><tspan x="0" y="0">File Upload</tspan></text>
    <g id="Rectangle_102" data-name="Rectangle 102" transform="translate(1166.692 1980.64)" fill="#fff" stroke="#81b7f9" stroke-width="1" stroke-dasharray="20">
      <rect width="462.287" height="94.259" rx="10" stroke="none"/>
      <rect x="0.5" y="0.5" width="461.287" height="93.259" rx="9.5" fill="none"/>
    </g>
    <g id="Group_69" data-name="Group 69" transform="translate(1299.58 2018.251)">
      <g id="paperclip" transform="translate(0 0.397)">
        <path id="Path_218" data-name="Path 218" d="M19.927,10.3l-8.475,8.475a5.536,5.536,0,1,1-7.829-7.829L12.1,2.469a3.691,3.691,0,1,1,5.219,5.219L8.833,16.163a1.845,1.845,0,0,1-2.61-2.61l7.829-7.82" transform="translate(-2.002 -1.388)" fill="none" stroke="#3783dc" stroke-linecap="round" stroke-linejoin="round" stroke-width="3"/>
      </g>
      <text id="Add_file_" data-name="Add file " transform="translate(23.782 13)" fill="#3783dc" font-size="14" font-family="BentonSans-Medium, Benton Sans" font-weight="500"><tspan x="0" y="0">Add file</tspan><tspan y="0" fill="#5f5f5f" font-family="BentonSans-Regular, Benton Sans" font-weight="400"> </tspan></text>
      <text id="or_drop_files_here" data-name="or drop files here" transform="translate(81.137 13)" fill="#5f5f5f" font-size="14" font-family="BentonSans-Regular, Benton Sans" opacity="0.5"><tspan x="0" y="0">or drop files here</tspan></text>
    </g>
    <g transform="matrix(1, 0, 0, 1, 1103.67, 1892)" filter="url(#Rectangle_106)">
      <rect id="Rectangle_106-2" data-name="Rectangle 106" width="84.052" height="30.019" rx="5" transform="translate(441.26 403.24)" fill="#5da0ed"/>
    </g>
    <text id="Done" transform="translate(1568.342 2315.239)" fill="#fff" font-size="15" font-family="BentonSans-Medium, Benton Sans" font-weight="500"><tspan x="0" y="0">Done</tspan></text>
    <g id="Group_70" data-name="Group 70" transform="translate(1166.692 2145.142)">
      <g transform="matrix(1, 0, 0, 1, -63.02, -253.14)" filter="url(#Rectangle_103)">
        <rect id="Rectangle_103-2" data-name="Rectangle 103" width="462.287" height="57.636" rx="10" transform="translate(63.02 253.14)" fill="#fff"/>
      </g>
      <g id="pdf" transform="translate(12.423 7.641)">
        <path id="Path_219" data-name="Path 219" d="M23.063,0H7.295C6.856,0,6.5.356,6.5,1.046V29.882a.818.818,0,0,0,.795.543H29.067a.818.818,0,0,0,.795-.543V7.051c0-.378-.051-.5-.14-.589L23.4.14A.48.48,0,0,0,23.063,0Z" transform="translate(-6.5)" fill="#e9e9e0"/>
        <path id="Path_220" data-name="Path 220" d="M37.5.151V6.589h6.438Z" transform="translate(-20.658 -0.069)" fill="#d9d7ca"/>
        <path id="Path_221" data-name="Path 221" d="M18.557,21.26a.872.872,0,0,1-.525-.177,1.3,1.3,0,0,1-.606-1.218c.1-.884,1.193-1.81,3.252-2.753a36.47,36.47,0,0,0,2.058-5.841c-.542-1.18-1.069-2.711-.685-3.609A1.042,1.042,0,0,1,22.666,7a2.668,2.668,0,0,1,.552-.093c.274,0,.515.353.685.57s.524.637-.2,3.7a17.361,17.361,0,0,0,2.764,4.108,10.57,10.57,0,0,1,1.824-.195c.851,0,1.366.2,1.577.607a1.1,1.1,0,0,1-.212,1.174,1.444,1.444,0,0,1-1.206.647,3.612,3.612,0,0,1-2.288-1.241,26.032,26.032,0,0,0-4.8,1.533,15.415,15.415,0,0,1-1.295,2.31c-.557.78-1.037,1.144-1.513,1.144ZM20,18.475c-1.161.653-1.634,1.189-1.668,1.491-.005.05-.02.181.234.376.081-.026.554-.241,1.434-1.867Zm7.409-2.413c.443.341.551.513.84.513a.819.819,0,0,0,.657-.24.86.86,0,0,0,.125-.225C28.968,16.074,28.88,16,28.4,16a7.944,7.944,0,0,0-.984.059Zm-4.058-3.576A38.734,38.734,0,0,1,21.9,16.6a27.147,27.147,0,0,1,3.529-1.1,18.6,18.6,0,0,1-2.077-3.012Zm-.33-4.6a1.3,1.3,0,0,0,.052,1.747C23.592,8.486,23.047,7.881,23.024,7.888Z" transform="translate(-11.486 -3.155)" fill="#cc4b4c"/>
        <path id="Path_222" data-name="Path 222" d="M29.067,48.236H7.295a.8.8,0,0,1-.795-.795V39H29.862v8.441A.8.8,0,0,1,29.067,48.236Z" transform="translate(-6.5 -17.811)" fill="#cc4b4c"/>
        <path id="Path_223" data-name="Path 223" d="M16.636,48.4h-.892V42.924h1.574a2.21,2.21,0,0,1,.691.111,1.878,1.878,0,0,1,.613.334,1.745,1.745,0,0,1,.438.538,1.492,1.492,0,0,1,.167.71,1.941,1.941,0,0,1-.141.754,1.576,1.576,0,0,1-.394.568,1.775,1.775,0,0,1-.609.356,2.344,2.344,0,0,1-.787.126h-.661V48.4Zm0-4.8v2.169h.817a.971.971,0,0,0,.323-.056.814.814,0,0,0,.293-.182.89.89,0,0,0,.215-.353,1.67,1.67,0,0,0,.081-.561,1.517,1.517,0,0,0-.037-.308.889.889,0,0,0-.152-.334.9.9,0,0,0-.323-.267,1.2,1.2,0,0,0-.55-.108h-.668Z" transform="translate(-10.722 -19.603)" fill="#fff"/>
        <path id="Path_224" data-name="Path 224" d="M28.5,45.509a4.022,4.022,0,0,1-.145,1.155,2.871,2.871,0,0,1-.368.8,1.889,1.889,0,0,1-.5.509,2.515,2.515,0,0,1-.538.279,2.224,2.224,0,0,1-.475.119,3.166,3.166,0,0,1-.319.025H24.084V42.924h1.649a3.133,3.133,0,0,1,1.214.219,2.521,2.521,0,0,1,.869.583,2.393,2.393,0,0,1,.516.828,2.742,2.742,0,0,1,.171.955ZM25.86,47.745a1.476,1.476,0,0,0,1.307-.579,2.94,2.94,0,0,0,.4-1.679,2.843,2.843,0,0,0-.081-.676,1.446,1.446,0,0,0-.316-.605,1.666,1.666,0,0,0-.635-.438A2.735,2.735,0,0,0,25.5,43.6h-.52v4.145h.884Z" transform="translate(-14.531 -19.603)" fill="#fff"/>
        <path id="Path_225" data-name="Path 225" d="M35.5,43.6v1.723h2.288v.609H35.5V48.4H34.6V42.924h3.424V43.6H35.5Z" transform="translate(-19.332 -19.603)" fill="#fff"/>
      </g>
      <rect id="Rectangle_104" data-name="Rectangle 104" width="389.642" height="3.247" transform="translate(45.028 34.822)" fill="#e2e2e2"/>
      <rect id="Rectangle_105" data-name="Rectangle 105" width="30.019" height="3.247" transform="translate(45.028 34.822)" fill="#81b7f9"/>
      <text id="TEN_Presentation_Slides.pdf" data-name="TEN Presentation Slides.pdf" transform="translate(45.028 19.407)" fill="#363636" font-size="9" font-family="BentonSans-Regular, Benton Sans"><tspan x="0" y="0">TEN Presentation Slides.pdf</tspan></text>
      <text id="_6.2_MB_of_26.9_MB_23_done_" data-name="6.2 MB of 26.9 MB (23% done)" transform="translate(45.028 48.627)" fill="#363636" font-size="6" font-family="BentonSans-Italic, Benton Sans" font-style="italic" opacity="0.75"><tspan x="0" y="0">6.2 MB of 26.9 MB (23% done)</tspan></text>
      <text id="_1.2mb_sec" data-name="1.2mb/sec" transform="translate(399.849 48.627)" fill="#363636" font-size="6" font-family="BentonSans-Regular, Benton Sans" opacity="0.75"><tspan x="0" y="0">1.2mb/sec</tspan></text>
      <g id="ios-close-circle" transform="translate(423.263 11.407)">
        <path id="Path_226" data-name="Path 226" d="M53.7,48a5.7,5.7,0,1,0,5.7,5.7A5.7,5.7,0,0,0,53.7,48Zm1.445,7.768L53.7,54.323l-1.445,1.445a.438.438,0,1,1-.62-.62L53.084,53.7l-1.445-1.445a.438.438,0,0,1,.62-.62L53.7,53.084l1.445-1.445a.438.438,0,1,1,.62.62L54.323,53.7l1.445,1.445a.44.44,0,0,1,0,.62A.435.435,0,0,1,55.149,55.768Z" transform="translate(-48 -48)" fill="#adadad"/>
      </g>
    </g>
    <text id="Tags" transform="translate(1166.692 2096.104)" fill="#5f5f5f" font-size="12" font-family="BentonSans-Regular, Benton Sans"><tspan x="0" y="0">Tags</tspan></text>
    <rect id="Rectangle_107" data-name="Rectangle 107" width="462.287" height="23.415" rx="5" transform="translate(1166.692 2104.316)" fill="#f5f5f5"/>
    <rect id="Rectangle_108" data-name="Rectangle 108" width="86.454" height="18.011" rx="5" transform="translate(1173.897 2107.318)" fill="#e0705a"/>
    <text id="High_Priority" data-name="High Priority" transform="translate(1181.101 2118.32)" fill="#fff" font-size="9" font-family="BentonSans-Regular, Benton Sans"><tspan x="0" y="0">High Priority</tspan></text>
    <g id="ic_close_48px" transform="translate(1245.891 2112.371)">
      <path id="Path_196" data-name="Path 196" d="M17.305,10.738,16.567,10l-2.914,2.914L10.738,10,10,10.738l2.914,2.914L10,16.567l.738.738,2.914-2.914,2.914,2.914.738-.738-2.914-2.914Z" transform="translate(-10 -10)" fill="#fff"/>
    </g>
  </g>
</svg>
