<svg xmlns="http://www.w3.org/2000/svg" xmlns:xlink="http://www.w3.org/1999/xlink" width="698" height="519.427" viewBox="0 0 698 519.427">
  <defs>
    <linearGradient id="linear-gradient" x1="0.055" y1="0.184" x2="0.981" y2="0.841" gradientUnits="objectBoundingBox">
      <stop offset="0" stop-color="#d17c00"/>
      <stop offset="1" stop-color="#ffc47d"/>
    </linearGradient>
    <linearGradient id="linear-gradient-2" x1="0.5" y1="0.019" x2="0.519" y2="0.934" gradientUnits="objectBoundingBox">
      <stop offset="0" stop-color="#ffc47d" stop-opacity="0"/>
      <stop offset="0.405" stop-color="#f4bc73" stop-opacity="0.31"/>
      <stop offset="0.866" stop-color="#e8b469" stop-opacity="0.678"/>
      <stop offset="1" stop-color="#ffc47d" stop-opacity="0.212"/>
    </linearGradient>
    <linearGradient id="linear-gradient-5" x1="0.055" y1="0.184" x2="0.981" y2="0.841" gradientUnits="objectBoundingBox">
      <stop offset="0" stop-color="#2355b7"/>
      <stop offset="1" stop-color="#b6deff"/>
    </linearGradient>
    <linearGradient id="linear-gradient-6" x1="0.5" y1="0.019" x2="0.519" y2="0.934" gradientUnits="objectBoundingBox">
      <stop offset="0" stop-color="#789fff" stop-opacity="0"/>
      <stop offset="0.37" stop-color="#789fff" stop-opacity="0.282"/>
      <stop offset="0.866" stop-color="#789fff" stop-opacity="0.678"/>
      <stop offset="1" stop-color="#b6deff" stop-opacity="0.212"/>
    </linearGradient>
  </defs>
  <g id="Group_222" data-name="Group 222" transform="translate(-260.508 -199.45)">
    <g id="Group_186" data-name="Group 186" transform="translate(670.852 416.09)">
      <path id="Path_798" data-name="Path 798" d="M778.867,483.48v18.773l16.257-9.387V474.094Z" transform="translate(-762.611 -464.707)" fill="#0c3577"/>
      <path id="Path_799" data-name="Path 799" d="M775.371,483.48v18.773l-16.257-9.387V474.094Z" transform="translate(-759.114 -464.707)" fill="#789fff"/>
      <path id="Path_800" data-name="Path 800" d="M791.627,472.075l-16.257,9.387-16.257-9.387,16.257-9.387Z" transform="translate(-759.114 -462.688)" fill="#2355b7"/>
    </g>
    <g id="Group_187" data-name="Group 187" transform="translate(739.819 453.92)">
      <path id="Path_801" data-name="Path 801" d="M862.669,529.447V548.22l16.257-9.387V520.061Z" transform="translate(-846.412 -510.674)" fill="#0c3577"/>
      <path id="Path_802" data-name="Path 802" d="M859.172,529.447V548.22l-16.257-9.387V520.061Z" transform="translate(-842.916 -510.674)" fill="#789fff"/>
      <path id="Path_803" data-name="Path 803" d="M875.429,518.042l-16.257,9.387-16.257-9.387,16.257-9.387Z" transform="translate(-842.916 -508.655)" fill="#2355b7"/>
    </g>
    <g id="Group_188" data-name="Group 188" transform="translate(380.696 467.662)">
      <path id="Path_804" data-name="Path 804" d="M426.3,546.145v18.773l16.257-9.387V536.758Z" transform="translate(-410.044 -527.372)" fill="#0c3577"/>
      <path id="Path_805" data-name="Path 805" d="M422.8,546.145v18.773l-16.257-9.387V536.758Z" transform="translate(-406.547 -527.372)" fill="#789fff"/>
      <path id="Path_806" data-name="Path 806" d="M439.06,534.74,422.8,544.126l-16.257-9.387,16.257-9.387Z" transform="translate(-406.547 -525.353)" fill="#2355b7"/>
    </g>
    <g id="Group_189" data-name="Group 189" transform="translate(447.907 425.08)">
      <path id="Path_807" data-name="Path 807" d="M507.969,494.4v18.773l16.257-9.387V485.017Z" transform="translate(-491.712 -475.631)" fill="#0c3577"/>
      <path id="Path_808" data-name="Path 808" d="M504.472,494.4v18.773l-16.257-9.387V485.017Z" transform="translate(-488.216 -475.631)" fill="#789fff"/>
      <path id="Path_809" data-name="Path 809" d="M520.729,483l-16.257,9.386L488.216,483l16.257-9.387Z" transform="translate(-488.216 -473.612)" fill="#2355b7"/>
    </g>
    <g id="Group_190" data-name="Group 190" transform="translate(520.843 423.547)">
      <path id="Path_810" data-name="Path 810" d="M596.593,492.541v18.773l16.257-9.387V483.154Z" transform="translate(-580.336 -473.768)" fill="#0c3577"/>
      <path id="Path_811" data-name="Path 811" d="M593.1,492.541v18.773l-16.257-9.387V483.154Z" transform="translate(-576.84 -473.768)" fill="#789fff"/>
      <path id="Path_812" data-name="Path 812" d="M609.353,481.135,593.1,490.522l-16.257-9.387,16.257-9.387Z" transform="translate(-576.84 -471.749)" fill="#2355b7"/>
    </g>
    <g id="Group_191" data-name="Group 191" transform="translate(596.837 421.183)">
      <path id="Path_813" data-name="Path 813" d="M688.932,489.668v18.773l16.257-9.387V480.282Z" transform="translate(-672.676 -470.895)" fill="#0c3577"/>
      <path id="Path_814" data-name="Path 814" d="M685.436,489.668v18.773l-16.257-9.387V480.282Z" transform="translate(-669.179 -470.895)" fill="#789fff"/>
      <path id="Path_815" data-name="Path 815" d="M701.692,478.263l-16.257,9.387-16.257-9.387,16.257-9.387Z" transform="translate(-669.179 -468.876)" fill="#2355b7"/>
    </g>
    <g id="Group_192" data-name="Group 192" transform="translate(807.354 494.189)">
      <path id="Path_816" data-name="Path 816" d="M944.73,578.378v18.773l16.257-9.386V568.991Z" transform="translate(-928.473 -559.605)" fill="#0c3577"/>
      <path id="Path_817" data-name="Path 817" d="M941.233,578.378v18.773l-16.256-9.386V568.991Z" transform="translate(-924.976 -559.605)" fill="#789fff"/>
      <path id="Path_818" data-name="Path 818" d="M957.489,566.972l-16.257,9.387-16.256-9.387,16.256-9.387Z" transform="translate(-924.976 -557.586)" fill="#2355b7"/>
    </g>
    <g id="Group_193" data-name="Group 193" transform="translate(705.846 435.147)">
      <path id="Path_819" data-name="Path 819" d="M821.388,506.636v18.773l16.257-9.387V497.25Z" transform="translate(-805.131 -487.863)" fill="#e08603"/>
      <path id="Path_820" data-name="Path 820" d="M817.891,506.636v18.773l-16.256-9.387V497.25Z" transform="translate(-801.635 -487.863)" fill="#ffc47d"/>
      <path id="Path_821" data-name="Path 821" d="M834.148,495.231l-16.257,9.387-16.256-9.387,16.256-9.387Z" transform="translate(-801.635 -485.844)" fill="#ff9d00"/>
    </g>
    <g id="Group_194" data-name="Group 194" transform="translate(413.934 446.135)">
      <path id="Path_822" data-name="Path 822" d="M466.688,519.987V538.76l16.257-9.386V510.6Z" transform="translate(-450.431 -501.214)" fill="#e08603"/>
      <path id="Path_823" data-name="Path 823" d="M463.191,519.987V538.76l-16.257-9.386V510.6Z" transform="translate(-446.935 -501.214)" fill="#ffc47d"/>
      <path id="Path_824" data-name="Path 824" d="M479.448,508.582l-16.257,9.387-16.257-9.387,16.257-9.387Z" transform="translate(-446.935 -499.195)" fill="#ff9d00"/>
    </g>
    <g id="Group_195" data-name="Group 195" transform="translate(480.42 404.774)">
      <path id="Path_825" data-name="Path 825" d="M547.475,469.73V488.5l16.257-9.387V460.343Z" transform="translate(-531.219 -450.957)" fill="#e08603"/>
      <path id="Path_826" data-name="Path 826" d="M543.978,469.73V488.5l-16.257-9.387V460.343Z" transform="translate(-527.722 -450.957)" fill="#ffc47d"/>
      <path id="Path_827" data-name="Path 827" d="M560.235,458.324l-16.257,9.387-16.257-9.387,16.257-9.387Z" transform="translate(-527.722 -448.938)" fill="#ff9d00"/>
    </g>
    <g id="Group_196" data-name="Group 196" transform="translate(635.661 395.06)">
      <path id="Path_828" data-name="Path 828" d="M736.107,457.927V476.7l16.257-9.387V448.54Z" transform="translate(-719.851 -439.154)" fill="#e08603"/>
      <path id="Path_829" data-name="Path 829" d="M732.61,457.927V476.7l-16.257-9.387V448.54Z" transform="translate(-716.354 -439.154)" fill="#ffc47d"/>
      <path id="Path_830" data-name="Path 830" d="M748.867,446.521l-16.257,9.387-16.257-9.387,16.257-9.387Z" transform="translate(-716.354 -437.135)" fill="#ff9d00"/>
    </g>
    <g id="Group_197" data-name="Group 197" transform="translate(774.303 472.693)">
      <path id="Path_831" data-name="Path 831" d="M904.57,552.258v18.773l16.257-9.387V542.872Z" transform="translate(-888.313 -533.485)" fill="#e08603"/>
      <path id="Path_832" data-name="Path 832" d="M901.073,552.258v18.773l-16.257-9.387V542.872Z" transform="translate(-884.816 -533.485)" fill="#ffc47d"/>
      <path id="Path_833" data-name="Path 833" d="M917.329,540.853l-16.257,9.387-16.257-9.387,16.257-9.387Z" transform="translate(-884.816 -531.466)" fill="#ff9d00"/>
    </g>
    <g id="Group_198" data-name="Group 198" transform="translate(557.541 446.785)">
      <path id="Path_834" data-name="Path 834" d="M641.184,520.778v18.773l16.257-9.386V511.391Z" transform="translate(-624.928 -502.005)" fill="#e08603"/>
      <path id="Path_835" data-name="Path 835" d="M637.688,520.778v18.773l-16.257-9.386V511.391Z" transform="translate(-621.431 -502.005)" fill="#ffc47d"/>
      <path id="Path_836" data-name="Path 836" d="M653.944,509.372l-16.257,9.387-16.257-9.387,16.257-9.387Z" transform="translate(-621.431 -499.986)" fill="#ff9d00"/>
    </g>
    <g id="Group_199" data-name="Group 199" transform="translate(823.022 476.729)">
      <ellipse id="Ellipse_250" data-name="Ellipse 250" cx="55.051" cy="31.784" rx="55.051" ry="31.784" transform="translate(0 31.784)" fill="#2355b7"/>
      <rect id="Rectangle_165" data-name="Rectangle 165" width="110.071" height="35.515" transform="translate(0 29.052)" fill="#2355b7"/>
      <ellipse id="Ellipse_251" data-name="Ellipse 251" cx="55.051" cy="31.784" rx="55.051" ry="31.784" fill="#789fff"/>
    </g>
    <g id="Group_200" data-name="Group 200" transform="translate(832.395 467.124)">
      <ellipse id="Ellipse_252" data-name="Ellipse 252" cx="45.678" cy="26.372" rx="45.678" ry="26.372" transform="translate(0 12.823)" fill="#0c3577"/>
      <rect id="Rectangle_166" data-name="Rectangle 166" width="91.355" height="12.823" transform="translate(0 26.372)" fill="#0c3577"/>
      <ellipse id="Ellipse_253" data-name="Ellipse 253" cx="45.678" cy="26.372" rx="45.678" ry="26.372" fill="#0c3f91"/>
    </g>
    <g id="Group_201" data-name="Group 201" transform="translate(823.022 424.257)">
      <ellipse id="Ellipse_254" data-name="Ellipse 254" cx="55.051" cy="31.784" rx="55.051" ry="31.784" transform="translate(0 31.784)" fill="#2355b7"/>
      <rect id="Rectangle_167" data-name="Rectangle 167" width="110.071" height="35.515" transform="translate(0 29.052)" fill="#2355b7"/>
      <ellipse id="Ellipse_255" data-name="Ellipse 255" cx="55.051" cy="31.784" rx="55.051" ry="31.784" fill="#789fff"/>
    </g>
    <g id="Group_202" data-name="Group 202" transform="translate(832.395 415.217)">
      <ellipse id="Ellipse_256" data-name="Ellipse 256" cx="45.678" cy="26.372" rx="45.678" ry="26.372" transform="translate(0 12.823)" fill="#0c3577"/>
      <rect id="Rectangle_168" data-name="Rectangle 168" width="91.355" height="12.823" transform="translate(0 26.372)" fill="#0c3577"/>
      <ellipse id="Ellipse_257" data-name="Ellipse 257" cx="45.678" cy="26.372" rx="45.678" ry="26.372" fill="#0c3f91"/>
    </g>
    <ellipse id="Ellipse_258" data-name="Ellipse 258" cx="55.051" cy="31.784" rx="55.051" ry="31.784" transform="translate(823.022 407.021)" fill="#2355b7"/>
    <rect id="Rectangle_169" data-name="Rectangle 169" width="110.071" height="35.515" transform="translate(823.022 404.289)" fill="#2355b7"/>
    <ellipse id="Ellipse_259" data-name="Ellipse 259" cx="55.051" cy="31.784" rx="55.051" ry="31.784" transform="translate(823.022 375.238)" fill="#789fff"/>
    <ellipse id="Ellipse_260" data-name="Ellipse 260" cx="33.12" cy="19.122" rx="33.12" ry="19.122" transform="translate(844.388 387.367)" fill="url(#linear-gradient)"/>
    <path id="Path_837" data-name="Path 837" d="M963.539,418.787s9.755,11.585,33.186,12.578,32.24-17.006,32.27-12.578,48.1-181.59,48.1-181.59H930.419Z" transform="translate(-118.586 -6.682)" fill="url(#linear-gradient-2)"/>
    <g id="Group_203" data-name="Group 203" transform="translate(271.697 471.048)">
      <ellipse id="Ellipse_261" data-name="Ellipse 261" cx="55.051" cy="31.784" rx="55.051" ry="31.784" transform="translate(0 31.784)" fill="#2355b7"/>
      <rect id="Rectangle_170" data-name="Rectangle 170" width="110.071" height="35.515" transform="translate(0 29.052)" fill="#2355b7"/>
      <ellipse id="Ellipse_262" data-name="Ellipse 262" cx="55.051" cy="31.784" rx="55.051" ry="31.784" fill="#789fff"/>
    </g>
    <g id="Group_204" data-name="Group 204" transform="translate(281.071 461.444)">
      <ellipse id="Ellipse_263" data-name="Ellipse 263" cx="45.678" cy="26.372" rx="45.678" ry="26.372" transform="translate(0 12.823)" fill="#0c3577"/>
      <rect id="Rectangle_171" data-name="Rectangle 171" width="91.355" height="12.823" transform="translate(0 26.372)" fill="#0c3577"/>
      <ellipse id="Ellipse_264" data-name="Ellipse 264" cx="45.678" cy="26.372" rx="45.678" ry="26.372" transform="translate(0)" fill="#0c3f91"/>
    </g>
    <g id="Group_205" data-name="Group 205" transform="translate(271.697 418.576)">
      <ellipse id="Ellipse_265" data-name="Ellipse 265" cx="55.051" cy="31.784" rx="55.051" ry="31.784" transform="translate(0 31.784)" fill="#2355b7"/>
      <rect id="Rectangle_172" data-name="Rectangle 172" width="110.071" height="35.515" transform="translate(0 29.052)" fill="#2355b7"/>
      <ellipse id="Ellipse_266" data-name="Ellipse 266" cx="55.051" cy="31.784" rx="55.051" ry="31.784" fill="#789fff"/>
    </g>
    <g id="Group_206" data-name="Group 206" transform="translate(281.071 409.537)">
      <ellipse id="Ellipse_267" data-name="Ellipse 267" cx="45.678" cy="26.372" rx="45.678" ry="26.372" transform="translate(0 12.823)" fill="#0c3577"/>
      <rect id="Rectangle_173" data-name="Rectangle 173" width="91.355" height="12.823" transform="translate(0 26.372)" fill="#0c3577"/>
      <ellipse id="Ellipse_268" data-name="Ellipse 268" cx="45.678" cy="26.372" rx="45.678" ry="26.372" transform="translate(0)" fill="#0c3f91"/>
    </g>
    <g id="Group_207" data-name="Group 207" transform="translate(395.197 566.531)">
      <path id="Path_838" data-name="Path 838" d="M443.92,666.28v18.773l16.257-9.387V656.893Z" transform="translate(-427.664 -647.507)" fill="#0c3577"/>
      <path id="Path_839" data-name="Path 839" d="M440.424,666.28v18.773l-16.257-9.387V656.893Z" transform="translate(-424.167 -647.507)" fill="#789fff"/>
      <path id="Path_840" data-name="Path 840" d="M456.68,654.874l-16.257,9.387-16.257-9.387,16.257-9.387Z" transform="translate(-424.167 -645.488)" fill="#2355b7"/>
    </g>
    <g id="Group_208" data-name="Group 208" transform="translate(464.164 604.361)">
      <path id="Path_841" data-name="Path 841" d="M527.722,712.247V731.02l16.257-9.386V702.86Z" transform="translate(-511.465 -693.474)" fill="#0c3577"/>
      <path id="Path_842" data-name="Path 842" d="M524.225,712.247V731.02l-16.257-9.386V702.86Z" transform="translate(-507.969 -693.474)" fill="#789fff"/>
      <path id="Path_843" data-name="Path 843" d="M540.482,700.841l-16.257,9.387-16.257-9.387,16.257-9.387Z" transform="translate(-507.969 -691.455)" fill="#2355b7"/>
    </g>
    <g id="Group_209" data-name="Group 209" transform="translate(531.698 644.63)">
      <path id="Path_844" data-name="Path 844" d="M609.783,761.177v18.773l16.257-9.387V751.791Z" transform="translate(-593.526 -742.404)" fill="#0c3577"/>
      <path id="Path_845" data-name="Path 845" d="M606.286,761.177v18.773l-16.257-9.387V751.791Z" transform="translate(-590.029 -742.404)" fill="#789fff"/>
      <path id="Path_846" data-name="Path 846" d="M622.543,749.772l-16.257,9.386-16.257-9.386,16.257-9.387Z" transform="translate(-590.029 -740.385)" fill="#2355b7"/>
    </g>
    <g id="Group_210" data-name="Group 210" transform="translate(430.19 585.588)">
      <path id="Path_847" data-name="Path 847" d="M486.441,689.436v18.773l16.257-9.387V680.049Z" transform="translate(-470.185 -670.663)" fill="#e08603"/>
      <path id="Path_848" data-name="Path 848" d="M482.944,689.436v18.773l-16.257-9.387V680.049Z" transform="translate(-466.688 -670.663)" fill="#ffc47d"/>
      <path id="Path_849" data-name="Path 849" d="M499.2,678.03l-16.257,9.387-16.257-9.387,16.257-9.386Z" transform="translate(-466.688 -668.644)" fill="#ff9d00"/>
    </g>
    <g id="Group_211" data-name="Group 211" transform="translate(360.006 545.501)">
      <path id="Path_850" data-name="Path 850" d="M401.16,640.726V659.5l16.257-9.387V631.34Z" transform="translate(-384.904 -621.953)" fill="#e08603"/>
      <path id="Path_851" data-name="Path 851" d="M397.663,640.726V659.5l-16.257-9.387V631.34Z" transform="translate(-381.407 -621.953)" fill="#ffc47d"/>
      <path id="Path_852" data-name="Path 852" d="M413.92,629.321l-16.257,9.386-16.257-9.386,16.257-9.387Z" transform="translate(-381.407 -619.934)" fill="#ff9d00"/>
    </g>
    <g id="Group_212" data-name="Group 212" transform="translate(498.647 623.134)">
      <path id="Path_853" data-name="Path 853" d="M569.623,735.058v18.773l16.257-9.387V725.671Z" transform="translate(-553.366 -716.285)" fill="#e08603"/>
      <path id="Path_854" data-name="Path 854" d="M566.126,735.058v18.773l-16.257-9.387V725.671Z" transform="translate(-549.869 -716.285)" fill="#ffc47d"/>
      <path id="Path_855" data-name="Path 855" d="M582.383,723.652l-16.257,9.386-16.257-9.386,16.257-9.387Z" transform="translate(-549.869 -714.266)" fill="#ff9d00"/>
    </g>
    <g id="Group_213" data-name="Group 213" transform="translate(781.019 571.251)">
      <path id="Path_856" data-name="Path 856" d="M909.338,671.974l-16.153-9.566-.207,18.771,16.153,9.566Z" transform="translate(-892.978 -653.203)" fill="#0c3577"/>
      <path id="Path_857" data-name="Path 857" d="M909.383,669.994l-16.153-9.566,16.36-9.205,16.153,9.566Z" transform="translate(-893.023 -651.223)" fill="#789fff"/>
      <path id="Path_858" data-name="Path 858" d="M912.606,690.822l.207-18.771,16.36-9.2-.207,18.771Z" transform="translate(-896.452 -653.281)" fill="#2355b7"/>
    </g>
    <g id="Group_214" data-name="Group 214" transform="translate(713.327 611.318)">
      <path id="Path_859" data-name="Path 859" d="M827.086,720.658l-16.153-9.566-.207,18.771,16.153,9.566Z" transform="translate(-810.726 -701.888)" fill="#0c3577"/>
      <path id="Path_860" data-name="Path 860" d="M827.13,718.678l-16.153-9.566,16.36-9.205,16.153,9.566Z" transform="translate(-810.77 -699.908)" fill="#789fff"/>
      <path id="Path_861" data-name="Path 861" d="M830.353,739.506l.207-18.771,16.36-9.205-.207,18.771Z" transform="translate(-814.2 -701.965)" fill="#2355b7"/>
    </g>
    <g id="Group_215" data-name="Group 215" transform="translate(644.266 648.908)">
      <path id="Path_862" data-name="Path 862" d="M743.17,766.335l-16.153-9.566-.207,18.771,16.153,9.566Z" transform="translate(-726.81 -747.564)" fill="#0c3577"/>
      <path id="Path_863" data-name="Path 863" d="M743.214,764.355l-16.153-9.566,16.36-9.2,16.153,9.566Z" transform="translate(-726.854 -745.584)" fill="#789fff"/>
      <path id="Path_864" data-name="Path 864" d="M746.437,785.183l.207-18.771L763,757.207l-.207,18.771Z" transform="translate(-730.284 -747.641)" fill="#2355b7"/>
    </g>
    <g id="Group_216" data-name="Group 216" transform="translate(746.791 591.651)">
      <path id="Path_865" data-name="Path 865" d="M867.748,696.761,851.594,687.2l-.207,18.771,16.153,9.566Z" transform="translate(-851.388 -677.991)" fill="#e08603"/>
      <path id="Path_866" data-name="Path 866" d="M867.792,694.781l-16.153-9.566L868,676.011l16.153,9.566Z" transform="translate(-851.432 -676.011)" fill="#ffc47d"/>
      <path id="Path_867" data-name="Path 867" d="M871.015,715.61l.207-18.771,16.36-9.2-.207,18.771Z" transform="translate(-854.862 -678.068)" fill="#ff9d00"/>
    </g>
    <g id="Group_217" data-name="Group 217" transform="translate(817.046 551.687)">
      <path id="Path_868" data-name="Path 868" d="M953.114,648.2l-16.153-9.566-.207,18.771,16.153,9.566Z" transform="translate(-936.754 -629.431)" fill="#e08603"/>
      <path id="Path_869" data-name="Path 869" d="M953.158,646.222l-16.153-9.566,16.36-9.205,16.153,9.566Z" transform="translate(-936.798 -627.451)" fill="#ffc47d"/>
      <path id="Path_870" data-name="Path 870" d="M956.381,667.05l.207-18.771,16.36-9.205-.207,18.771Z" transform="translate(-940.228 -629.508)" fill="#ff9d00"/>
    </g>
    <g id="Group_218" data-name="Group 218" transform="translate(679.603 631.423)">
      <path id="Path_871" data-name="Path 871" d="M786.108,745.088l-16.153-9.566-.207,18.771,16.153,9.566Z" transform="translate(-769.748 -726.318)" fill="#e08603"/>
      <path id="Path_872" data-name="Path 872" d="M786.152,743.108,770,733.543l16.36-9.205,16.153,9.566Z" transform="translate(-769.792 -724.338)" fill="#ffc47d"/>
      <path id="Path_873" data-name="Path 873" d="M789.375,763.937l.207-18.771,16.36-9.205-.207,18.771Z" transform="translate(-773.222 -726.395)" fill="#ff9d00"/>
    </g>
    <ellipse id="Ellipse_269" data-name="Ellipse 269" cx="55.051" cy="31.784" rx="55.051" ry="31.784" transform="translate(271.697 401.341)" fill="#2355b7"/>
    <rect id="Rectangle_174" data-name="Rectangle 174" width="110.071" height="35.515" transform="translate(271.697 398.609)" fill="#2355b7"/>
    <ellipse id="Ellipse_270" data-name="Ellipse 270" cx="55.051" cy="31.784" rx="55.051" ry="31.784" transform="translate(271.697 369.557)" fill="#789fff"/>
    <ellipse id="Ellipse_271" data-name="Ellipse 271" cx="33.12" cy="19.122" rx="33.12" ry="19.122" transform="translate(293.063 381.686)" fill="url(#linear-gradient)"/>
    <path id="Path_874" data-name="Path 874" d="M293.628,411.885s9.755,11.584,33.186,12.578,32.24-17.007,32.27-12.578,48.1-181.591,48.1-181.591H260.508Z" transform="translate(0 -5.46)" fill="url(#linear-gradient-2)"/>
    <path id="Path_875" data-name="Path 875" d="M649.281,703.871v47.786l-27.587,15.929V719.8Z" transform="translate(-63.936 -89.292)" fill="#4d4d4d"/>
    <path id="Path_876" data-name="Path 876" d="M442.788,595.866" transform="translate(-32.267 -70.173)" fill="none" stroke="#231f20" stroke-miterlimit="10" stroke-width="1"/>
    <path id="Path_877" data-name="Path 877" d="M463.87,590.979" transform="translate(-35.999 -69.308)" fill="none" stroke="#231f20" stroke-miterlimit="10" stroke-width="1"/>
    <path id="Path_878" data-name="Path 878" d="M459.741,592.712" transform="translate(-35.268 -69.614)" fill="none" stroke="#231f20" stroke-miterlimit="10" stroke-width="1"/>
    <ellipse id="Ellipse_272" data-name="Ellipse 272" cx="55.051" cy="31.784" rx="55.051" ry="31.784" transform="translate(548.289 655.31)" fill="#ff9d00"/>
    <rect id="Rectangle_175" data-name="Rectangle 175" width="110.071" height="35.515" transform="translate(548.289 652.578)" fill="#ff9d00"/>
    <ellipse id="Ellipse_273" data-name="Ellipse 273" cx="55.051" cy="31.784" rx="55.051" ry="31.784" transform="translate(548.289 623.526)" fill="#ffc47d"/>
    <ellipse id="Ellipse_274" data-name="Ellipse 274" cx="45.678" cy="26.372" rx="45.678" ry="26.372" transform="translate(557.663 626.745)" fill="#d17c00"/>
    <rect id="Rectangle_176" data-name="Rectangle 176" width="91.355" height="12.823" transform="translate(557.663 640.294)" fill="#0c3577"/>
    <ellipse id="Ellipse_275" data-name="Ellipse 275" cx="45.678" cy="26.372" rx="45.678" ry="26.372" transform="translate(557.663 613.922)" fill="#0c3f91"/>
    <ellipse id="Ellipse_276" data-name="Ellipse 276" cx="55.051" cy="31.784" rx="55.051" ry="31.784" transform="translate(548.289 602.838)" fill="#ff9d00"/>
    <rect id="Rectangle_177" data-name="Rectangle 177" width="110.071" height="35.515" transform="translate(548.289 600.106)" fill="#ff9d00"/>
    <ellipse id="Ellipse_277" data-name="Ellipse 277" cx="55.051" cy="31.784" rx="55.051" ry="31.784" transform="translate(548.289 571.055)" fill="#ffc47d"/>
    <ellipse id="Ellipse_278" data-name="Ellipse 278" cx="45.678" cy="26.372" rx="45.678" ry="26.372" transform="translate(557.663 574.838)" fill="#d17c00"/>
    <rect id="Rectangle_178" data-name="Rectangle 178" width="91.355" height="12.823" transform="translate(557.663 588.387)" fill="#0c3577"/>
    <ellipse id="Ellipse_279" data-name="Ellipse 279" cx="45.678" cy="26.372" rx="45.678" ry="26.372" transform="translate(557.663 562.015)" fill="#0c3f91"/>
    <ellipse id="Ellipse_280" data-name="Ellipse 280" cx="55.051" cy="31.784" rx="55.051" ry="31.784" transform="translate(548.289 553.819)" fill="#ff9d00"/>
    <rect id="Rectangle_179" data-name="Rectangle 179" width="110.071" height="35.515" transform="translate(548.289 551.087)" fill="#ff9d00"/>
    <ellipse id="Ellipse_281" data-name="Ellipse 281" cx="55.051" cy="31.784" rx="55.051" ry="31.784" transform="translate(548.289 522.035)" fill="#ffc47d"/>
    <ellipse id="Ellipse_282" data-name="Ellipse 282" cx="33.12" cy="19.122" rx="33.12" ry="19.122" transform="translate(569.655 534.165)" fill="url(#linear-gradient-5)"/>
    <path id="Path_879" data-name="Path 879" d="M629.713,597.16s9.755,11.584,33.186,12.578,32.24-17.006,32.27-12.578,48.1-181.59,48.1-181.59H596.593Z" transform="translate(-59.493 -38.257)" fill="url(#linear-gradient-6)"/>
    <g id="Group_219" data-name="Group 219" transform="translate(571.029 363.162)">
      <path id="Path_880" data-name="Path 880" d="M709.427,407.556l-5.712-6.939a5.8,5.8,0,0,0-4.692-2.243H650.06a5.8,5.8,0,0,0-4.692,2.243l-5.712,6.939a7.1,7.1,0,0,0-1.837,5.1v51a8.185,8.185,0,0,0,8.161,8.161H703.1a8.184,8.184,0,0,0,8.161-8.161v-51a7.1,7.1,0,0,0-1.837-5.1Zm-34.885,49.982L652.1,435.1h14.281v-8.161H682.7V435.1h14.281Zm-28.153-51,3.264-4.08h48.963l3.878,4.08Z" transform="translate(-637.82 -398.375)" fill="#2355b7"/>
    </g>
    <g id="Group_220" data-name="Group 220" transform="translate(296.51 199.45)">
      <path id="Path_881" data-name="Path 881" d="M371.213,218.226H306.829a2.574,2.574,0,0,0-2.575,2.575v54.081a2.575,2.575,0,0,0,2.575,2.576h64.384a2.575,2.575,0,0,0,2.575-2.576V220.8A2.574,2.574,0,0,0,371.213,218.226Zm-18.027,24.466a1.287,1.287,0,0,1-1.288,1.287H326.145a1.287,1.287,0,0,1-1.288-1.287v-6.439a1.288,1.288,0,0,1,2.575,0V241.4H350.61v-5.151a1.288,1.288,0,0,1,2.575,0Z" transform="translate(-304.254 -202.774)" fill="#ff9d00"/>
      <path id="Path_882" data-name="Path 882" d="M366.436,207.273H314.93a1.288,1.288,0,0,0-1.288,1.288v5.15h54.081v-5.15A1.288,1.288,0,0,0,366.436,207.273Z" transform="translate(-305.916 -200.835)" fill="#ff9d00"/>
      <path id="Path_883" data-name="Path 883" d="M360.372,199.45H324.317a1.288,1.288,0,0,0-1.287,1.288v2.575h38.63v-2.575A1.288,1.288,0,0,0,360.372,199.45Z" transform="translate(-307.578 -199.45)" fill="#ff9d00"/>
    </g>
    <g id="Group_221" data-name="Group 221" transform="translate(850.529 200.938)">
      <path id="Path_884" data-name="Path 884" d="M1044.044,201.412,978.292,230.07a1.507,1.507,0,0,0,.054,2.741l17.785,10.049a2.868,2.868,0,0,0,3.278-.323l35.07-30.234c.233-.2.788-.574,1-.359.233.233-.125.77-.323,1l-30.342,34.174a2.858,2.858,0,0,0-.286,3.421l11.625,18.645a1.512,1.512,0,0,0,2.722-.035l27.189-65.752a1.507,1.507,0,0,0-2.024-1.988Z" transform="translate(-977.438 -201.258)" fill="#ff9d00"/>
    </g>
  </g>
</svg>
