<svg xmlns="http://www.w3.org/2000/svg" xmlns:xlink="http://www.w3.org/1999/xlink" width="175" height="175" viewBox="0 0 175 175">
  <defs>
    <clipPath id="clip-path">
      <path id="Path_432" data-name="Path 432" d="M1261.023,604.49l4.923-2.861c-4.115,2.392-6.294,7.711-6.315,15.476l-4.922,2.861C1254.73,612.2,1256.908,606.881,1261.023,604.49Z" transform="translate(-1254.708 -601.629)" fill="none"/>
    </clipPath>
    <clipPath id="clip-path-2">
      <path id="Path_448" data-name="Path 448" d="M1258.651,576.752l4.922-2.861a13.367,13.367,0,0,1,1.3-.664c5.516-2.44,12.89-1.283,20.764,3.263l-4.923,2.861c-7.875-4.547-15.248-5.7-20.764-3.263A13.316,13.316,0,0,0,1258.651,576.752Z" transform="translate(-1258.651 -571.978)" fill="none"/>
    </clipPath>
    <clipPath id="clip-path-3">
      <path id="Path_485" data-name="Path 485" d="M1321.844,587.762l4.922-2.861c7.875,4.547,15.23,11.893,20.713,20.683a59.656,59.656,0,0,1,9.471,31.6l-4.922,2.86a59.652,59.652,0,0,0-9.471-31.6C1337.074,599.655,1329.719,592.308,1321.844,587.762Z" transform="translate(-1321.844 -584.901)" fill="none"/>
    </clipPath>
    <clipPath id="clip-Artboard_1">
      <rect width="175" height="175"/>
    </clipPath>
  </defs>
  <g id="Artboard_1" data-name="Artboard – 1" clip-path="url(#clip-Artboard_1)">
    <rect width="175" height="175" fill="#fff"/>
    <g id="Group_327" data-name="Group 327" transform="translate(-372.467 -1854.616)">
      <g id="Group_84" data-name="Group 84" transform="translate(418.357 1880.23)">
        <path id="Path_418" data-name="Path 418" d="M1229.46,616,1212,626.476l64.255,37.365,17.81-10.127Z" transform="translate(-1211.476 -600.627)" fill="#2355b7"/>
        <path id="Path_419" data-name="Path 419" d="M1211.2,645.5l-.7,61.112,64.6,37.365V683.215Z" transform="translate(-1210.5 -619.825)" fill="#789fff"/>
        <path id="Path_420" data-name="Path 420" d="M1413.31,723.5v60.763l-17.81,10.476V733.976Z" transform="translate(-1330.896 -670.587)" fill="#0c3577"/>
        <g id="Group_83" data-name="Group 83" transform="translate(8.501)">
          <g id="Group_82" data-name="Group 82">
            <g id="Group_81" data-name="Group 81">
              <g id="Group_73" data-name="Group 73" transform="translate(6.936 10.355)">
                <g id="Group_72" data-name="Group 72" clip-path="url(#clip-path)">
                  <g id="Group_71" data-name="Group 71">
                    <path id="Path_421" data-name="Path 421" d="M1266.188,604.49l4.922-2.861a10.367,10.367,0,0,0-3.544,3.478l-4.922,2.861a10.364,10.364,0,0,1,3.544-3.478" transform="translate(-1259.873 -601.629)" fill="#282828"/>
                    <path id="Path_422" data-name="Path 422" d="M1261.155,614.449l4.922-2.861a13.634,13.634,0,0,0-.8,1.452l-4.922,2.86a13.629,13.629,0,0,1,.8-1.452" transform="translate(-1258.384 -608.11)" fill="#2a2a2a"/>
                    <path id="Path_423" data-name="Path 423" d="M1259.337,618.606l4.922-2.86q-.295.621-.547,1.3l-4.922,2.861q.251-.679.547-1.3" transform="translate(-1257.365 -610.816)" fill="#2b2b2b"/>
                    <path id="Path_424" data-name="Path 424" d="M1258.023,622.329l4.922-2.861q-.223.6-.411,1.246l-4.922,2.861q.189-.645.411-1.246" transform="translate(-1256.598 -613.238)" fill="#2d2d2d"/>
                    <path id="Path_425" data-name="Path 425" d="M1257.014,625.9l4.922-2.861q-.175.6-.321,1.239l-4.923,2.861q.145-.638.321-1.239" transform="translate(-1256 -615.56)" fill="#2e2e2e"/>
                    <path id="Path_426" data-name="Path 426" d="M1256.229,629.445l4.922-2.861q-.138.606-.249,1.246l-4.922,2.861q.111-.64.249-1.246" transform="translate(-1255.536 -617.869)" fill="#303030"/>
                    <path id="Path_427" data-name="Path 427" d="M1255.627,633.012l4.922-2.861q-.108.623-.19,1.277l-4.922,2.861q.082-.654.19-1.277" transform="translate(-1255.182 -620.191)" fill="#313131"/>
                    <path id="Path_428" data-name="Path 428" d="M1255.183,636.669l4.922-2.861q-.081.646-.136,1.322l-4.922,2.861q.055-.677.136-1.322" transform="translate(-1254.929 -622.571)" fill="#333"/>
                    <path id="Path_429" data-name="Path 429" d="M1254.889,640.456l4.922-2.861q-.055.675-.084,1.38l-4.923,2.861q.029-.7.085-1.38" transform="translate(-1254.771 -625.035)" fill="#343434"/>
                    <path id="Path_430" data-name="Path 430" d="M1254.742,644.407l4.923-2.861q-.03.71-.034,1.45l-4.922,2.861q0-.74.033-1.45" transform="translate(-1254.709 -627.606)" fill="#363636"/>
                    <path id="Path_431" data-name="Path 431" d="M1254.708,648.559l4.922-2.861c0,.029,0,.058,0,.087l-4.922,2.861c0-.029,0-.058,0-.087" transform="translate(-1254.708 -630.309)" fill="#373737"/>
                  </g>
                </g>
              </g>
              <g id="Group_76" data-name="Group 76" transform="translate(8.313)">
                <g id="Group_75" data-name="Group 75" clip-path="url(#clip-path-2)">
                  <g id="Group_74" data-name="Group 74" transform="translate(0 0)">
                    <path id="Path_433" data-name="Path 433" d="M1258.651,578.329l4.922-2.861a13.367,13.367,0,0,1,1.3-.664q.5-.221,1.021-.4l-4.922,2.861q-.52.182-1.021.4a13.343,13.343,0,0,0-1.3.664" transform="translate(-1258.651 -573.555)" fill="#282828"/>
                    <path id="Path_434" data-name="Path 434" d="M1265.307,576.26l4.922-2.861a14.551,14.551,0,0,1,1.985-.538l-4.922,2.86a14.552,14.552,0,0,0-1.985.538" transform="translate(-1262.983 -572.553)" fill="#2a2a2a"/>
                    <path id="Path_435" data-name="Path 435" d="M1270.992,575.276l4.922-2.86a16.06,16.06,0,0,1,1.676-.239l-4.922,2.861a16.053,16.053,0,0,0-1.676.239" transform="translate(-1266.682 -572.107)" fill="#2b2b2b"/>
                    <path id="Path_436" data-name="Path 436" d="M1275.793,574.908l4.922-2.861q.747-.067,1.521-.069l-4.922,2.861q-.774,0-1.521.069" transform="translate(-1269.807 -571.978)" fill="#2d2d2d"/>
                    <path id="Path_437" data-name="Path 437" d="M1280.149,574.839l4.922-2.861q.706,0,1.434.049l-4.923,2.861q-.727-.051-1.434-.049" transform="translate(-1272.642 -571.978)" fill="#2e2e2e"/>
                    <path id="Path_438" data-name="Path 438" d="M1284.255,574.978l4.922-2.861q.68.048,1.377.142l-4.923,2.861q-.7-.095-1.377-.142" transform="translate(-1275.314 -572.068)" fill="#303030"/>
                    <path id="Path_439" data-name="Path 439" d="M1288.2,575.385l4.922-2.861q.666.09,1.347.223l-4.922,2.861q-.68-.133-1.347-.223" transform="translate(-1277.881 -572.333)" fill="#313131"/>
                    <path id="Path_440" data-name="Path 440" d="M1292.056,576.023l4.922-2.861q.657.128,1.326.3l-4.922,2.86q-.669-.167-1.326-.3" transform="translate(-1280.391 -572.748)" fill="#333"/>
                    <path id="Path_441" data-name="Path 441" d="M1295.854,576.868l4.922-2.86q.651.163,1.313.363l-4.923,2.861q-.662-.2-1.313-.363" transform="translate(-1282.862 -573.299)" fill="#343434"/>
                    <path id="Path_442" data-name="Path 442" d="M1299.615,577.908l4.922-2.861q.651.2,1.313.43l-4.923,2.861q-.661-.233-1.313-.43" transform="translate(-1285.31 -573.975)" fill="#363636"/>
                    <path id="Path_443" data-name="Path 443" d="M1303.374,579.139l4.922-2.861q.655.23,1.318.5l-4.922,2.86q-.664-.266-1.319-.5" transform="translate(-1287.756 -574.776)" fill="#373737"/>
                    <path id="Path_444" data-name="Path 444" d="M1307.15,580.56l4.922-2.86q.661.264,1.33.564l-4.922,2.861q-.669-.3-1.33-.565" transform="translate(-1290.214 -575.702)" fill="#393939"/>
                    <path id="Path_445" data-name="Path 445" d="M1310.96,582.177l4.922-2.861q.671.3,1.348.636l-4.922,2.861q-.678-.335-1.349-.635" transform="translate(-1292.693 -576.753)" fill="#3b3b3b"/>
                    <path id="Path_446" data-name="Path 446" d="M1314.822,584l4.922-2.861q.684.338,1.375.712l-4.923,2.861q-.69-.373-1.374-.712" transform="translate(-1295.207 -577.938)" fill="#3c3c3c"/>
                    <path id="Path_447" data-name="Path 447" d="M1318.757,586.035l4.922-2.861q.537.291,1.078.6l-4.923,2.861q-.541-.312-1.078-.6" transform="translate(-1297.767 -579.264)" fill="#3e3e3e"/>
                  </g>
                </g>
              </g>
              <g id="Group_77" data-name="Group 77" transform="translate(0 2.86)">
                <path id="Path_449" data-name="Path 449" d="M1265.226,584.682c7.875,4.546,15.23,11.893,20.713,20.683a59.651,59.651,0,0,1,9.471,31.6l-6.936-4a45.765,45.765,0,0,0-7.16-24.3,47.809,47.809,0,0,0-16.11-16.009c-6.174-3.564-11.911-4.493-16.15-2.617-4.734,2.1-7.248,7.617-7.272,15.964l-6.936-4c.03-10.689,3.356-17.8,9.617-20.577C1249.978,578.979,1257.351,580.136,1265.226,584.682Z" transform="translate(-1234.845 -580.169)" fill="#292929"/>
              </g>
              <g id="Group_80" data-name="Group 80" transform="translate(30.381 4.513)">
                <g id="Group_79" data-name="Group 79" clip-path="url(#clip-path-3)">
                  <g id="Group_78" data-name="Group 78">
                    <path id="Path_450" data-name="Path 450" d="M1321.844,587.762l4.922-2.861.329.191-4.922,2.861-.328-.191" transform="translate(-1321.844 -584.901)" fill="#3e3e3e"/>
                    <path id="Path_451" data-name="Path 451" d="M1322.785,588.31l4.922-2.861q.713.42,1.42.869l-4.923,2.861q-.707-.449-1.419-.869" transform="translate(-1322.456 -585.258)" fill="#3f3f3f"/>
                    <path id="Path_452" data-name="Path 452" d="M1326.85,590.8l4.922-2.861q.717.456,1.427.943l-4.922,2.861q-.709-.486-1.427-.943" transform="translate(-1325.102 -586.877)" fill="#414141"/>
                    <path id="Path_453" data-name="Path 453" d="M1330.936,593.5l4.922-2.861q.724.5,1.44,1.023l-4.922,2.86q-.716-.526-1.44-1.023" transform="translate(-1327.761 -588.634)" fill="#424242"/>
                    <path id="Path_454" data-name="Path 454" d="M1335.06,596.427l4.922-2.86q.732.539,1.455,1.108l-4.923,2.861q-.722-.569-1.454-1.109" transform="translate(-1330.445 -590.541)" fill="#444"/>
                    <path id="Path_455" data-name="Path 455" d="M1339.225,599.6l4.922-2.861q.734.579,1.456,1.188l-4.922,2.86q-.722-.609-1.456-1.188" transform="translate(-1333.155 -592.606)" fill="#454545"/>
                    <path id="Path_456" data-name="Path 456" d="M1343.394,603l4.922-2.86q.726.613,1.44,1.256l-4.923,2.86q-.713-.643-1.44-1.256" transform="translate(-1335.869 -594.821)" fill="#474747"/>
                    <path id="Path_457" data-name="Path 457" d="M1347.517,606.6l4.922-2.86q.705.635,1.4,1.3l-4.922,2.861q-.692-.664-1.4-1.3" transform="translate(-1338.552 -597.161)" fill="#484848"/>
                    <path id="Path_458" data-name="Path 458" d="M1351.518,610.321l4.922-2.861q.673.646,1.332,1.317l-4.922,2.861q-.659-.672-1.332-1.317" transform="translate(-1341.155 -599.582)" fill="#4a4a4a"/>
                    <path id="Path_459" data-name="Path 459" d="M1355.333,614.093l4.922-2.861q.636.648,1.258,1.319l-4.922,2.86q-.622-.671-1.258-1.318" transform="translate(-1343.638 -602.037)" fill="#4b4b4b"/>
                    <path id="Path_460" data-name="Path 460" d="M1358.935,617.868l4.922-2.86q.6.645,1.184,1.312l-4.922,2.86q-.585-.666-1.184-1.312" transform="translate(-1345.982 -604.494)" fill="#4d4d4d"/>
                    <path id="Path_461" data-name="Path 461" d="M1362.324,621.624l4.922-2.86q.577.657,1.14,1.333l-4.922,2.861q-.563-.676-1.14-1.334" transform="translate(-1348.188 -606.939)" fill="#626262"/>
                    <path id="Path_462" data-name="Path 462" d="M1365.589,625.443l4.922-2.861q.581.7,1.146,1.416l-4.922,2.861q-.565-.718-1.146-1.416" transform="translate(-1350.313 -609.423)" fill="#6b6b6b"/>
                    <path id="Path_463" data-name="Path 463" d="M1368.872,629.5l4.922-2.861q.626.8,1.232,1.614l-4.923,2.861q-.605-.818-1.232-1.614" transform="translate(-1352.449 -612.062)" fill="#727272"/>
                    <path id="Path_464" data-name="Path 464" d="M1372.4,634.119l4.922-2.861q.849,1.148,1.655,2.337l-4.922,2.861q-.805-1.19-1.655-2.337" transform="translate(-1354.746 -615.07)" fill="#787878"/>
                    <path id="Path_465" data-name="Path 465" d="M1377.14,640.812l4.922-2.861q.72,1.063,1.4,2.158.538.863,1.047,1.734l-4.922,2.861q-.509-.872-1.047-1.735-.683-1.094-1.4-2.158" transform="translate(-1357.83 -619.425)" fill="#7d7d7d"/>
                    <path id="Path_466" data-name="Path 466" d="M1384.155,651.958l4.923-2.861q.664,1.14,1.279,2.294l-4.922,2.861q-.614-1.154-1.28-2.294" transform="translate(-1362.395 -626.679)" fill="#787878"/>
                    <path id="Path_467" data-name="Path 467" d="M1387.819,658.528l4.922-2.861q.422.794.821,1.594l-4.923,2.86q-.4-.8-.821-1.594" transform="translate(-1364.78 -630.955)" fill="#727272"/>
                    <path id="Path_468" data-name="Path 468" d="M1390.169,663.091l4.922-2.86q.342.688.667,1.381l-4.923,2.86q-.325-.692-.667-1.381" transform="translate(-1366.309 -633.925)" fill="#6b6b6b"/>
                    <path id="Path_469" data-name="Path 469" d="M1392.08,667.045l4.922-2.86q.307.653.6,1.311l-4.922,2.861q-.29-.657-.6-1.311" transform="translate(-1367.553 -636.498)" fill="#626262"/>
                    <path id="Path_470" data-name="Path 470" d="M1393.789,670.8l4.922-2.861q.286.647.556,1.3l-4.922,2.861q-.27-.65-.556-1.3" transform="translate(-1368.665 -638.941)" fill="#4d4d4d"/>
                    <path id="Path_471" data-name="Path 471" d="M1395.38,674.512l4.922-2.861q.272.655.528,1.312l-4.922,2.861q-.256-.657-.528-1.312" transform="translate(-1369.701 -641.357)" fill="#4b4b4b"/>
                    <path id="Path_472" data-name="Path 472" d="M1396.892,678.269l4.922-2.861q.264.678.511,1.359l-4.923,2.86q-.246-.681-.511-1.359" transform="translate(-1370.684 -643.802)" fill="#4a4a4a"/>
                    <path id="Path_473" data-name="Path 473" d="M1398.355,682.161l4.923-2.86q.257.708.495,1.419l-4.922,2.861q-.238-.711-.495-1.419" transform="translate(-1371.636 -646.336)" fill="#484848"/>
                    <path id="Path_474" data-name="Path 474" d="M1399.772,686.226l4.922-2.861q.247.738.474,1.477l-4.922,2.861q-.227-.74-.474-1.477" transform="translate(-1372.559 -648.98)" fill="#474747"/>
                    <path id="Path_475" data-name="Path 475" d="M1401.129,690.456l4.922-2.861q.234.763.446,1.528l-4.922,2.861q-.212-.765-.446-1.528" transform="translate(-1373.442 -651.733)" fill="#454545"/>
                    <path id="Path_476" data-name="Path 476" d="M1402.406,694.831l4.922-2.861q.218.783.412,1.567l-4.922,2.861q-.194-.785-.412-1.567" transform="translate(-1374.273 -654.58)" fill="#444"/>
                    <path id="Path_477" data-name="Path 477" d="M1403.585,699.319l4.922-2.861q.2.8.371,1.593l-4.922,2.86q-.174-.8-.371-1.593" transform="translate(-1375.04 -657.501)" fill="#424242"/>
                    <path id="Path_478" data-name="Path 478" d="M1404.647,703.881l4.922-2.86q.175.8.327,1.611l-4.922,2.861q-.151-.806-.327-1.611" transform="translate(-1375.731 -660.471)" fill="#414141"/>
                    <path id="Path_479" data-name="Path 479" d="M1405.583,708.494l4.922-2.861q.153.813.281,1.627l-4.923,2.861q-.128-.813-.281-1.627" transform="translate(-1376.341 -663.472)" fill="#3f3f3f"/>
                    <path id="Path_480" data-name="Path 480" d="M1406.387,713.152l4.922-2.861q.13.823.234,1.646l-4.923,2.861q-.1-.823-.234-1.646" transform="translate(-1376.864 -666.503)" fill="#3e3e3e"/>
                    <path id="Path_481" data-name="Path 481" d="M1407.057,717.865l4.922-2.861q.106.835.186,1.671l-4.923,2.86q-.079-.835-.185-1.67" transform="translate(-1377.3 -669.571)" fill="#3c3c3c"/>
                    <path id="Path_482" data-name="Path 482" d="M1407.588,722.648l4.922-2.86q.082.854.136,1.709l-4.922,2.86q-.054-.854-.136-1.709" transform="translate(-1377.645 -672.684)" fill="#3b3b3b"/>
                    <path id="Path_483" data-name="Path 483" d="M1407.977,727.541l4.922-2.86q.055.879.082,1.756l-4.922,2.861q-.027-.878-.082-1.757" transform="translate(-1377.898 -675.868)" fill="#393939"/>
                    <path id="Path_484" data-name="Path 484" d="M1408.212,732.572l4.922-2.861q.026.856.023,1.711l-4.922,2.86q0-.854-.023-1.711" transform="translate(-1378.051 -679.142)" fill="#373737"/>
                  </g>
                </g>
              </g>
            </g>
          </g>
        </g>
        <path id="Path_486" data-name="Path 486" d="M1395.5,779.486l11.873-6.986v6.984l-11.873,6.76Z" transform="translate(-1330.896 -702.476)" fill="#82bae0"/>
        <path id="Path_487" data-name="Path 487" d="M1395.5,813.486l11.873-6.986v6.984l-11.873,6.76Z" transform="translate(-1330.896 -724.602)" fill="#82bae0"/>
        <path id="Path_488" data-name="Path 488" d="M1352.548,767.119,1329.5,753.5v6.635l23.048,13.619Z" transform="translate(-1287.944 -690.111)" fill="#b6deff"/>
        <path id="Path_489" data-name="Path 489" d="M1352.548,801.119,1329.5,787.5v6.635l23.048,13.619Z" transform="translate(-1287.944 -712.237)" fill="#b6deff"/>
      </g>
    </g>
  </g>
</svg>
